<svg width="36" height="36" viewBox="0 0 36 36" fill="none" xmlns="http://www.w3.org/2000/svg">
<path d="M31.6035 24.5404C31.4528 24.1787 31.3021 23.7857 31.1514 23.4542C30.9103 22.9105 30.4269 21.8859 30.4269 21.8859C28.345 17.3604 26.1011 12.7823 23.7605 8.25054C23.5546 7.85249 23.1879 7.13425 22.9456 6.65207C22.6442 6.10962 22.3429 5.53578 21.8594 4.99333C20.8951 3.78663 19.5076 3.12238 18.0296 3.12238C16.5216 3.12238 15.1642 3.78663 14.1684 4.9318C13.7151 5.47551 13.3836 6.04809 13.0823 6.5918C12.8412 7.07398 12.2673 8.19027 12.2673 8.19027C9.94435 12.7157 7.68163 17.3002 5.60098 21.8256C5.60098 21.8256 5.1188 22.8816 4.87646 23.4241C4.72578 23.7556 4.5751 24.1185 4.42442 24.5102C4.03265 25.6265 3.9121 26.6826 4.06278 27.7687C4.39428 30.0314 5.90234 31.9313 7.98425 32.7763C8.76779 33.1078 9.58272 33.2585 10.4278 33.2585C10.6689 33.2585 10.9702 33.2284 11.2126 33.1982C12.2083 33.0777 13.2342 32.7462 14.2287 32.1724C15.4655 31.478 16.6421 30.4835 17.9694 29.0357C19.2966 30.4835 20.5033 31.4792 21.71 32.1724C22.7058 32.7462 23.7316 33.0777 24.7261 33.1982C24.9672 33.2284 25.2686 33.2585 25.5109 33.2585C26.356 33.2585 27.1998 33.1078 27.9545 32.7751C30.0665 31.93 31.5444 30 31.8759 27.7675C32.117 26.7127 31.9965 25.6567 31.6035 24.5404ZM17.9995 26.1087C16.3709 24.0569 15.3149 22.127 14.9532 20.4971C14.8026 19.8027 14.7724 19.2 14.8628 18.6576C14.9231 18.1754 15.1039 17.7522 15.345 17.3906C15.9176 16.5757 16.8832 16.0633 17.9995 16.0633C19.1158 16.0633 20.1115 16.5455 20.654 17.3906C20.8951 17.7522 21.0759 18.1754 21.1362 18.6576C21.2266 19.2 21.1964 19.8341 21.0458 20.4971C20.6841 22.0968 19.6281 24.0281 17.9995 26.1087ZM30.0351 27.5264C29.8242 29.0947 28.7681 30.4521 27.2902 31.0561C26.5657 31.3574 25.7822 31.4478 24.9974 31.3574C24.2427 31.267 23.4893 31.0259 22.7045 30.5726C21.6183 29.9699 20.5322 29.0344 19.2652 27.6469C21.2567 25.2034 22.4634 22.9708 22.9155 20.9806C23.1264 20.0451 23.1565 19.2 23.0661 18.4165C22.9456 17.6618 22.6744 16.9687 22.2512 16.3647C21.317 15.0086 19.7486 14.2238 17.9995 14.2238C16.2503 14.2238 14.6808 15.0387 13.7465 16.366C13.3246 16.9687 13.0521 17.6631 12.9316 18.4177C12.8111 19.2025 12.8412 20.0765 13.0823 20.9818C13.5343 22.972 14.7712 25.2348 16.7325 27.6783C15.4957 29.0658 14.3794 30.0013 13.2932 30.604C12.5084 31.0561 11.755 31.2984 11.0004 31.3888C10.1854 31.4792 9.4019 31.3587 8.70752 31.0875C7.22959 30.4847 6.17357 29.1261 5.96262 27.5578C5.87221 26.8031 5.93248 26.0497 6.23384 25.2046C6.32425 24.9033 6.47493 24.6019 6.62561 24.239C6.83656 23.7568 7.35013 22.6707 7.35013 22.6707C9.43204 18.1766 11.6634 13.5909 13.9864 9.12575C13.9864 9.12575 14.559 8.00945 14.8013 7.55741C15.0424 7.07398 15.3136 6.62193 15.6464 6.23017C16.2805 5.5069 17.1243 5.11387 18.0598 5.11387C18.9952 5.11387 19.8391 5.50564 20.4732 6.23017C20.8047 6.62193 21.0759 7.07523 21.3182 7.55741C21.5593 8.00945 21.931 8.73272 22.1332 9.12575C24.4323 13.6173 26.6586 18.2055 28.7393 22.7008C28.7393 22.7008 29.1913 23.7568 29.4336 24.239C29.5843 24.6007 29.735 24.9033 29.8254 25.2046C30.0653 25.9882 30.1557 26.7428 30.0351 27.5264Z" fill="#342430"/>
</svg>
