<svg width="28" height="35" viewBox="0 0 28 35" fill="none" xmlns="http://www.w3.org/2000/svg">
<path d="M26 7.64705V29.1715C26 31.065 24.465 32.6 22.5714 32.6H18.8H9.2H5.42857C3.53502 32.6 2 31.065 2 29.1715V7.64706C2 4.52828 4.52827 2 7.64705 2H20.3529C23.4717 2 26 4.52827 26 7.64705Z" fill="#342430"/>
<path d="M9.2 32.6V25.7429C9.2 24.7961 9.96751 24.0286 10.9143 24.0286H17.0857C18.0325 24.0286 18.8 24.7961 18.8 25.7429V32.6M2 29.1715L2 7.64706C2 4.52828 4.52827 2 7.64705 2L20.3529 2C23.4717 2 26 4.52827 26 7.64705V29.1715C26 31.065 24.465 32.6 22.5714 32.6H5.42857C3.53502 32.6 2 31.065 2 29.1715Z" stroke="white" stroke-width="2.82353" stroke-linecap="round" stroke-linejoin="round"/>
<path d="M9.19922 9.19993V6.79993H11.5992V9.19993H9.19922Z" fill="white"/>
<path d="M9.19922 14.0007V11.6007H11.5992V14.0007H9.19922Z" fill="white"/>
<path d="M9.19922 18.8006V16.4006H11.5992V18.8006H9.19922Z" fill="white"/>
<path d="M16.4009 9.19993V6.79993H18.8009V9.19993H16.4009Z" fill="white"/>
<path d="M16.4009 14.0007V11.6007H18.8009V14.0007H16.4009Z" fill="white"/>
<path d="M16.4009 18.8006V16.4006H18.8009V18.8006H16.4009Z" fill="white"/>
</svg>
