<svg width="28" height="28" viewBox="0 0 28 28" fill="none" xmlns="http://www.w3.org/2000/svg">
<path d="M24.0554 22.3132L25.2151 22.9091L24.0554 23.505L23.6918 23.6918L23.505 24.0554L22.9091 25.2151L22.3132 24.0554L22.1264 23.6918L21.7628 23.505L20.6031 22.9091L21.7628 22.3132L22.1264 22.1264L22.3132 21.7628L22.9091 20.6031L23.505 21.7628L23.6918 22.1264L24.0554 22.3132ZM8.14839 11.2442L8.51198 11.0574L8.69879 10.6938L11.4545 5.33037L14.2103 10.6938L14.3971 11.0574L14.7607 11.2442L20.1242 14L14.7607 16.7558L14.3971 16.9426L14.2103 17.3062L11.4545 22.6696L8.69879 17.3062L8.51198 16.9426L8.14839 16.7558L2.78492 14L8.14839 11.2442ZM23.4675 3.65429L23.8311 3.46748L24.0179 3.10389L24.1818 2.78492L24.3457 3.10389L24.5325 3.46748L24.8961 3.65429L25.2151 3.81818L24.8961 3.98207L24.5325 4.16888L24.3457 4.53247L24.1818 4.85145L24.0179 4.53247L23.8311 4.16888L23.4675 3.98207L23.1486 3.81818L23.4675 3.65429Z" fill="#342430" stroke="#342430" stroke-width="2.54545"/>
</svg>
