<svg width="32" height="27" viewBox="0 0 32 27" fill="none" xmlns="http://www.w3.org/2000/svg">
<path d="M9.53135 19.5662V25.5913H15.5564V19.5662C15.5564 18.7343 14.8821 18.0599 14.0502 18.0599H11.0376C10.2057 18.0599 9.53135 18.7343 9.53135 19.5662Z" fill="#342430"/>
<path d="M22.0767 9.96452L13.5446 2.38047C12.9739 1.87318 12.1139 1.87318 11.5432 2.38047L3.01112 9.96452C2.36798 10.5362 2 11.3556 2 12.2161V22.5787C2 24.2425 3.34876 25.5913 5.01254 25.5913H9.53135M9.53135 25.5913V19.5662C9.53135 18.7343 10.2057 18.0599 11.0376 18.0599H14.0502C14.8821 18.0599 15.5564 18.7343 15.5564 19.5662V25.5913M9.53135 25.5913H15.5564M15.5564 25.5913H20.0752M19.9993 20.2078H30L26.3634 23.3709M30 17.2774L19.9993 17.2774L23.6359 14.1143" stroke="#342430" stroke-width="2.50287" stroke-linecap="round" stroke-linejoin="round"/>
</svg>
