<svg width="31" height="30" viewBox="0 0 31 30" fill="none" xmlns="http://www.w3.org/2000/svg">
<ellipse cx="16.118" cy="2.82942" rx="2.82947" ry="2.82942" fill="#342430"/>
<path d="M19.6465 23.1379L23.3224 18.2369C24.0205 17.3061 25.4541 17.4353 25.9745 18.476L28.4251 23.3771C28.9454 24.4178 28.1887 25.6423 27.0251 25.6423H20.8987C19.6088 25.6423 18.8726 24.1698 19.6465 23.1379Z" fill="#342430"/>
<path d="M2.1553 27.4505C1.85177 28.2599 2.26186 29.1621 3.07125 29.4657C3.88065 29.7692 4.78285 29.3591 5.08638 28.5497L2.1553 27.4505ZM8.62322 19.1183C8.92675 18.3089 8.51667 17.4067 7.70727 17.1032C6.89788 16.7997 5.99567 17.2098 5.69214 18.0192L8.62322 19.1183ZM14.6176 20.9266C14.6176 20.0622 13.9169 19.3614 13.0524 19.3614C12.188 19.3614 11.4872 20.0622 11.4872 20.9266H14.6176ZM11.4872 28.0001C11.4872 28.8646 12.188 29.5653 13.0524 29.5653C13.9169 29.5653 14.6176 28.8646 14.6176 28.0001H11.4872ZM3.24717 8.97413C2.50592 8.52939 1.54448 8.76975 1.09974 9.51101C0.654996 10.2523 0.895365 11.2137 1.63662 11.6584L3.24717 8.97413ZM23.3224 18.2369L22.0702 17.2977V17.2977L23.3224 18.2369ZM19.6465 23.1379L20.8987 24.0771V24.0771L19.6465 23.1379ZM28.4251 23.3771L29.825 22.6771V22.6771L28.4251 23.3771ZM25.9745 18.476L27.3744 17.776V17.776L25.9745 18.476ZM5.08638 28.5497L8.62322 19.1183L5.69214 18.0192L2.1553 27.4505L5.08638 28.5497ZM11.4872 20.9266V28.0001H14.6176V20.9266H11.4872ZM1.63662 11.6584L19.3208 22.2687L20.9314 19.5844L3.24717 8.97413L1.63662 11.6584ZM22.0702 17.2977L18.3944 22.1988L20.8987 24.0771L24.5745 19.176L22.0702 17.2977ZM20.8987 27.2075H27.0251V24.0771H20.8987V27.2075ZM29.825 22.6771L27.3744 17.776L24.5745 19.176L27.0251 24.0771L29.825 22.6771ZM27.0251 27.2075C29.3522 27.2075 30.8657 24.7585 29.825 22.6771L27.0251 24.0771H27.0251V27.2075ZM18.3944 22.1988C16.8466 24.2625 18.319 27.2075 20.8987 27.2075V24.0771L20.8987 24.0771L18.3944 22.1988ZM24.5745 19.176L24.5745 19.176L27.3744 17.776C26.3337 15.6947 23.4665 15.4361 22.0702 17.2977L24.5745 19.176Z" fill="#342430"/>
<path d="M17.7636 15.0317C17.7636 13.8528 16.8715 10.6027 15.4057 9.13708C13.9398 7.67149 11.8718 7.95776 10.6933 9.13719C9.51555 10.316 8.33545 13.067 8.33545 13.8529" stroke="#342430" stroke-width="3.1304" stroke-linecap="round"/>
</svg>
