<svg width="32" height="35" viewBox="0 0 32 35" fill="none" xmlns="http://www.w3.org/2000/svg">
<path d="M2 15.5648C2 14.4222 2.48859 13.3342 3.34254 12.5752L14.6713 2.50518C15.429 1.83161 16.571 1.83161 17.3287 2.50518L28.6575 12.5752C29.5114 13.3342 30 14.4222 30 15.5648V29.3241C30 31.5332 28.2091 33.3241 26 33.3241H6C3.79086 33.3241 2 31.5332 2 29.3241V15.5648Z" fill="#342430"/>
<path d="M12 33.3241V25.3241C12 24.2195 12.8954 23.3241 14 23.3241H18C19.1046 23.3241 20 24.2195 20 25.3241V33.3241M14.6713 2.50518L3.34254 12.5752C2.48859 13.3342 2 14.4222 2 15.5648V29.3241C2 31.5332 3.79086 33.3241 6 33.3241H26C28.2091 33.3241 30 31.5332 30 29.3241V15.5648C30 14.4222 29.5114 13.3342 28.6575 12.5752L17.3287 2.50518C16.571 1.83161 15.429 1.83161 14.6713 2.50518Z" stroke="white" stroke-width="2.8" stroke-linecap="round" stroke-linejoin="round"/>
</svg>
