<svg width="17" height="17" viewBox="0 0 17 17" fill="none" xmlns="http://www.w3.org/2000/svg">
<path fill-rule="evenodd" clip-rule="evenodd" d="M2 0C0.895431 0 0 0.89543 0 2V14.38C0 15.4846 0.89543 16.38 2 16.38H14.38C15.4846 16.38 16.38 15.4846 16.38 14.38V2C16.38 0.895431 15.4846 0 14.38 0H2ZM12.1243 10.2505C12.1392 10.2872 12.1541 10.324 12.169 10.3598C12.284 10.6863 12.3192 10.9952 12.2487 11.3037C12.1517 11.9567 11.7195 12.5212 11.1017 12.7684C10.8809 12.8657 10.6341 12.9098 10.3869 12.9098C10.3161 12.9098 10.2279 12.901 10.1574 12.8922C9.8665 12.8569 9.56643 12.76 9.27518 12.5921C8.92222 12.3894 8.56926 12.0981 8.18104 11.6746C7.79282 12.0981 7.44867 12.389 7.0869 12.5921C6.79601 12.76 6.49594 12.8569 6.20468 12.8922C6.13379 12.901 6.04565 12.9098 5.97513 12.9098C5.72795 12.9098 5.48958 12.8657 5.26039 12.7688C4.65144 12.5216 4.21033 11.9659 4.11336 11.3041C4.06929 10.9864 4.10455 10.6775 4.21914 10.351C4.26322 10.2364 4.30729 10.1302 4.35136 10.0333C4.42225 9.87458 4.56329 9.5657 4.56329 9.5657C5.17188 8.24201 5.83372 6.90105 6.5132 5.57736C6.5132 5.57736 6.68105 5.25084 6.75157 5.10981C6.83971 4.95077 6.93668 4.78329 7.06927 4.62426C7.36052 4.28929 7.75756 4.095 8.19867 4.095C8.63096 4.095 9.03681 4.28929 9.31888 4.64225C9.44896 4.78821 9.53398 4.94195 9.61538 5.08915C9.62247 5.10197 9.62952 5.11473 9.63658 5.12744C9.70747 5.26847 9.81472 5.47856 9.87495 5.59499C10.5596 6.92052 11.2159 8.25963 11.8249 9.58333C11.8249 9.58333 11.9663 9.88303 12.0368 10.0421C12.066 10.1063 12.0952 10.1784 12.1243 10.2505ZM7.29882 9.17711C7.4046 9.65385 7.71348 10.2184 8.18985 10.8185C8.66622 10.2099 8.97511 9.64503 9.08088 9.17711C9.12496 8.98319 9.13377 8.79771 9.10733 8.63904C9.0897 8.498 9.03681 8.37423 8.96629 8.26845C8.80762 8.02127 8.51637 7.88023 8.18985 7.88023C7.86334 7.88023 7.58089 8.03008 7.41341 8.26845C7.34289 8.37423 7.29 8.498 7.27238 8.63904C7.24593 8.79771 7.25475 8.974 7.29882 9.17711ZM10.9074 12.2656C11.3397 12.0889 11.6486 11.6919 11.7103 11.2332C11.7455 11.004 11.7191 10.7832 11.6489 10.5541C11.6305 10.4926 11.6034 10.4309 11.5738 10.3633C11.561 10.334 11.5477 10.3036 11.5343 10.2716C11.4635 10.1306 11.3312 9.8217 11.3312 9.8217C10.7226 8.50682 10.0714 7.16476 9.39895 5.85099L9.39218 5.83782C9.33182 5.72046 9.22849 5.51957 9.16058 5.39225C9.0897 5.25121 9.01036 5.11862 8.9134 5.00403C8.72792 4.79211 8.48111 4.67751 8.20748 4.67751C7.93385 4.67751 7.68704 4.79247 7.50156 5.00403C7.40423 5.11862 7.3249 5.25084 7.25438 5.39225C7.18349 5.52447 7.01601 5.85099 7.01601 5.85099C6.33653 7.15705 5.68387 8.49837 5.07491 9.81288C5.07491 9.81288 4.92469 10.1306 4.86299 10.2716C4.84937 10.3044 4.83575 10.3355 4.82265 10.3654C4.79336 10.4322 4.76667 10.4932 4.7484 10.5541C4.66025 10.8012 4.64262 11.0216 4.66906 11.2423C4.73077 11.7011 5.03965 12.0985 5.47195 12.2748C5.67506 12.3541 5.90424 12.3894 6.14261 12.3629C6.36335 12.3365 6.58372 12.2656 6.81327 12.1334C7.13097 11.9571 7.45749 11.6835 7.81926 11.2776C7.24556 10.5629 6.88379 9.90103 6.75157 9.31888C6.68105 9.05407 6.67223 8.79844 6.70749 8.56889C6.74275 8.34815 6.82245 8.14504 6.94586 7.96875C7.21912 7.58053 7.67822 7.34216 8.18985 7.34216C8.70148 7.34216 9.16022 7.57171 9.43348 7.96838C9.55725 8.14504 9.63658 8.34778 9.67184 8.56852C9.69829 8.79771 9.68947 9.04489 9.62777 9.31852C9.49555 9.90066 9.14259 10.5537 8.56007 11.2684C8.93066 11.6743 9.24836 11.9479 9.56606 12.1242C9.79562 12.2568 10.016 12.3273 10.2367 12.3538C10.4663 12.3802 10.6955 12.3538 10.9074 12.2656Z" fill="#776C74"/>
</svg>
