<svg width="17" height="17" viewBox="0 0 17 17" fill="none" xmlns="http://www.w3.org/2000/svg">
<path d="M5.82986 13.6546C6.06197 13.6546 6.25653 13.5761 6.41354 13.419C6.57055 13.262 6.64906 13.0675 6.64906 12.8354C6.64906 12.6033 6.57055 12.4087 6.41354 12.2517C6.25653 12.0947 6.06197 12.0162 5.82986 12.0162C5.59775 12.0162 5.40319 12.0947 5.24618 12.2517C5.08917 12.4087 5.01066 12.6033 5.01066 12.8354C5.01066 13.0675 5.08917 13.262 5.24618 13.419C5.40319 13.5761 5.59775 13.6546 5.82986 13.6546ZM8.28746 13.6546C8.51957 13.6546 8.71413 13.5761 8.87114 13.419C9.02815 13.262 9.10666 13.0675 9.10666 12.8354C9.10666 12.6033 9.02815 12.4087 8.87114 12.2517C8.71413 12.0947 8.51957 12.0162 8.28746 12.0162C8.05535 12.0162 7.86079 12.0947 7.70378 12.2517C7.54677 12.4087 7.46826 12.6033 7.46826 12.8354C7.46826 13.0675 7.54677 13.262 7.70378 13.419C7.86079 13.5761 8.05535 13.6546 8.28746 13.6546ZM10.7451 13.6546C10.9772 13.6546 11.1717 13.5761 11.3287 13.419C11.4858 13.262 11.5643 13.0675 11.5643 12.8354C11.5643 12.6033 11.4858 12.4087 11.3287 12.2517C11.1717 12.0947 10.9772 12.0162 10.7451 12.0162C10.513 12.0162 10.3184 12.0947 10.1614 12.2517C10.0044 12.4087 9.92586 12.6033 9.92586 12.8354C9.92586 13.0675 10.0044 13.262 10.1614 13.419C10.3184 13.5761 10.513 13.6546 10.7451 13.6546ZM5.82986 11.197C6.06197 11.197 6.25653 11.1185 6.41354 10.9614C6.57055 10.8044 6.64906 10.6099 6.64906 10.3778C6.64906 10.1457 6.57055 9.9511 6.41354 9.79408C6.25653 9.63707 6.06197 9.55856 5.82986 9.55856C5.59775 9.55856 5.40319 9.63707 5.24618 9.79408C5.08917 9.9511 5.01066 10.1457 5.01066 10.3778C5.01066 10.6099 5.08917 10.8044 5.24618 10.9614C5.40319 11.1185 5.59775 11.197 5.82986 11.197ZM8.28746 11.197C8.51957 11.197 8.71413 11.1185 8.87114 10.9614C9.02815 10.8044 9.10666 10.6099 9.10666 10.3778C9.10666 10.1457 9.02815 9.9511 8.87114 9.79408C8.71413 9.63707 8.51957 9.55856 8.28746 9.55856C8.05535 9.55856 7.86079 9.63707 7.70378 9.79408C7.54677 9.9511 7.46826 10.1457 7.46826 10.3778C7.46826 10.6099 7.54677 10.8044 7.70378 10.9614C7.86079 11.1185 8.05535 11.197 8.28746 11.197ZM10.7451 11.197C10.9772 11.197 11.1717 11.1185 11.3287 10.9614C11.4858 10.8044 11.5643 10.6099 11.5643 10.3778C11.5643 10.1457 11.4858 9.9511 11.3287 9.79408C11.1717 9.63707 10.9772 9.55856 10.7451 9.55856C10.513 9.55856 10.3184 9.63707 10.1614 9.79408C10.0044 9.9511 9.92586 10.1457 9.92586 10.3778C9.92586 10.6099 10.0044 10.8044 10.1614 10.9614C10.3184 11.1185 10.513 11.197 10.7451 11.197ZM8.28746 3.82416C7.15423 3.82416 6.18826 4.22352 5.38954 5.02224C4.59082 5.82096 4.19146 6.78694 4.19146 7.92016C4.19146 8.15227 4.26997 8.34683 4.42698 8.50384C4.58399 8.66086 4.77855 8.73936 5.01066 8.73936H11.5643C11.7964 8.73936 11.9909 8.66086 12.1479 8.50384C12.305 8.34683 12.3835 8.15227 12.3835 7.92016C12.3835 6.78694 11.9841 5.82096 11.1854 5.02224C10.3867 4.22352 9.42069 3.82416 8.28746 3.82416ZM1.73386 16.9314C1.2833 16.9314 0.897592 16.7709 0.576739 16.4501C0.255886 16.1292 0.095459 15.7435 0.095459 15.293V2.18576C0.095459 1.7352 0.255886 1.3495 0.576739 1.02864C0.897592 0.70779 1.2833 0.547363 1.73386 0.547363H14.8411C15.2916 0.547363 15.6773 0.70779 15.9982 1.02864C16.319 1.3495 16.4795 1.7352 16.4795 2.18576V15.293C16.4795 15.7435 16.319 16.1292 15.9982 16.4501C15.6773 16.7709 15.2916 16.9314 14.8411 16.9314H1.73386Z" fill="#776C74"/>
</svg>
