<svg width="17" height="17" viewBox="0 0 17 17" fill="none" xmlns="http://www.w3.org/2000/svg">
<path d="M3.78186 11.5167H12.7931V12.1311C12.7931 12.3086 12.8511 12.4554 12.9671 12.5714C13.0832 12.6875 13.23 12.7455 13.4075 12.7455C13.585 12.7455 13.7317 12.6875 13.8478 12.5714C13.9638 12.4554 14.0219 12.3086 14.0219 12.1311V9.5916C14.0219 9.30488 13.9672 9.03523 13.858 8.78264C13.7488 8.53005 13.5986 8.30819 13.4075 8.11704V6.19192C13.4075 5.74136 13.247 5.35565 12.9262 5.0348C12.6053 4.71395 12.2196 4.55352 11.7691 4.55352H9.10666C8.95647 4.55352 8.81311 4.574 8.67658 4.61496C8.54005 4.65592 8.41034 4.71736 8.28746 4.79928C8.16458 4.71736 8.03487 4.65592 7.89834 4.61496C7.76181 4.574 7.61845 4.55352 7.46826 4.55352H4.80586C4.3553 4.55352 3.96959 4.71395 3.64874 5.0348C3.32789 5.35565 3.16746 5.74136 3.16746 6.19192V8.11704C2.97631 8.30819 2.82613 8.53005 2.7169 8.78264C2.60767 9.03523 2.55306 9.30488 2.55306 9.5916V12.1311C2.55306 12.3086 2.61109 12.4554 2.72714 12.5714C2.84319 12.6875 2.98997 12.7455 3.16746 12.7455C3.34495 12.7455 3.49173 12.6875 3.60778 12.5714C3.72383 12.4554 3.78186 12.3086 3.78186 12.1311V11.5167ZM3.78186 10.2879V9.46872C3.78186 9.23661 3.86037 9.04205 4.01738 8.88504C4.17439 8.72803 4.36895 8.64952 4.60106 8.64952H11.9739C12.206 8.64952 12.4005 8.72803 12.5575 8.88504C12.7146 9.04205 12.7931 9.23661 12.7931 9.46872V10.2879H3.78186ZM4.39626 7.42072V5.78232H7.67306V7.42072H4.39626ZM8.90186 7.42072V5.78232H12.1787V7.42072H8.90186ZM1.73386 16.8415C1.2833 16.8415 0.897592 16.6811 0.576739 16.3602C0.255886 16.0394 0.095459 15.6537 0.095459 15.2031V2.09592C0.095459 1.64536 0.255886 1.25965 0.576739 0.9388C0.897592 0.617946 1.2833 0.45752 1.73386 0.45752H14.8411C15.2916 0.45752 15.6773 0.617946 15.9982 0.9388C16.319 1.25965 16.4795 1.64536 16.4795 2.09592V15.2031C16.4795 15.6537 16.319 16.0394 15.9982 16.3602C15.6773 16.6811 15.2916 16.8415 14.8411 16.8415H1.73386Z" fill="#776C74"/>
</svg>
