<svg width="17" height="17" viewBox="0 0 17 17" fill="none" xmlns="http://www.w3.org/2000/svg">
<path fill-rule="evenodd" clip-rule="evenodd" d="M2 0C0.895431 0 0 0.89543 0 2V14.38C0 15.4846 0.89543 16.38 2 16.38H14.38C15.4846 16.38 16.38 15.4846 16.38 14.38V2C16.38 0.895431 15.4846 0 14.38 0H2ZM6.51396 4.495L9.86604 4.495C10.5288 4.495 11.066 5.03224 11.066 5.69496V11.5128C11.066 11.8088 10.826 12.0488 10.53 12.0488H9.9004V10.5768C9.9004 10.0974 9.51178 9.70881 9.0324 9.70881H7.3476C6.86822 9.70881 6.4796 10.0974 6.4796 10.5768V12.0488H5.85C5.55398 12.0488 5.314 11.8088 5.314 11.5128V5.69496C5.314 5.03224 5.85124 4.495 6.51396 4.495ZM10.53 12.8488H9.5004H6.8796H5.85C5.11215 12.8488 4.514 12.2507 4.514 11.5128V5.69496C4.514 4.59041 5.40941 3.695 6.51396 3.695L9.86604 3.695C10.9706 3.695 11.866 4.59041 11.866 5.69496V11.5128C11.866 12.2507 11.2679 12.8488 10.53 12.8488ZM9.1004 10.5768V12.0488H7.2796V10.5768C7.2796 10.5393 7.31004 10.5088 7.3476 10.5088H9.0324C9.06995 10.5088 9.1004 10.5393 9.1004 10.5768ZM6.87975 6.06056V5.40526H7.53504V6.06056H6.87975ZM6.87958 6.71595V7.37124H7.53487V6.71595H6.87958ZM6.87958 8.68172V8.02643H7.53487V8.68172H6.87958ZM8.8453 5.40547V6.06076H9.50059V5.40547H8.8453ZM8.8453 7.37124V6.71595H9.50059V7.37124H8.8453ZM8.8453 8.02643V8.68172H9.50059V8.02643H8.8453Z" fill="#776C74"/>
</svg>
