<svg width="17" height="17" viewBox="0 0 17 17" fill="none" xmlns="http://www.w3.org/2000/svg">
<path fill-rule="evenodd" clip-rule="evenodd" d="M2 0C0.895431 0 0 0.89543 0 2V14.38C0 15.4846 0.89543 16.38 2 16.38H14.38C15.4846 16.38 16.38 15.4846 16.38 14.38V2C16.38 0.895431 15.4846 0 14.38 0H2ZM6.30136 6.89698L7.14764 5.24988L7.99391 6.89698C8.09252 7.08889 8.24874 7.24511 8.44066 7.34372L10.0878 8.19L8.44066 9.03628C8.24874 9.13488 8.09252 9.29111 7.99391 9.48302L7.14764 11.1301L6.30136 9.48302C6.20275 9.29111 6.04653 9.13488 5.85461 9.03628L4.20752 8.19L5.85461 7.34372C6.04653 7.24511 6.20275 7.08889 6.30136 6.89698ZM5.58979 6.53137L6.69793 4.37462L6.70389 4.36301L6.79165 4.1922L6.94035 3.90279C7.02704 3.73407 7.26823 3.73407 7.35492 3.90279L7.50362 4.1922L7.59138 4.36301L7.59734 4.37462L8.70548 6.53137C8.72773 6.57466 8.76297 6.60991 8.80626 6.63215L10.963 7.74029L10.9746 7.74626L11.1454 7.83402L11.4348 7.98272C11.6036 8.0694 11.6036 8.31059 11.4348 8.39728L11.1454 8.54598L10.9746 8.63374L10.963 8.63971L8.80626 9.74785C8.76297 9.77009 8.72773 9.80533 8.70548 9.84863L7.59734 12.0054L7.59138 12.017L7.50362 12.1878L7.35492 12.4772C7.26823 12.6459 7.02704 12.6459 6.94035 12.4772L6.79166 12.1878L6.70389 12.017L6.69793 12.0054L5.58979 9.84863C5.56754 9.80533 5.5323 9.77009 5.48901 9.74785L3.33226 8.63971L3.32064 8.63374L3.14984 8.54598L2.86043 8.39728C2.69171 8.31059 2.69171 8.0694 2.86043 7.98272L3.14984 7.83402L3.32064 7.74626L3.33226 7.74029L5.48901 6.63215C5.5323 6.60991 5.56754 6.57466 5.58979 6.53137ZM11.3945 10.6172L11.3886 10.6288L11.1649 11.0641C11.1427 11.1074 11.1074 11.1427 11.0641 11.1649L10.6288 11.3886L10.6172 11.3945L10.4464 11.4823L10.157 11.631C9.98825 11.7177 9.98825 11.9589 10.157 12.0456L10.4464 12.1943L10.6172 12.282L10.6288 12.288L11.0641 12.5116C11.1074 12.5339 11.1427 12.5691 11.1649 12.6124L11.3886 13.0477L11.3945 13.0594L11.4823 13.2302L11.631 13.5196C11.7177 13.6883 11.9589 13.6883 12.0456 13.5196L12.1943 13.2302L12.282 13.0594L12.288 13.0477L12.5116 12.6124C12.5339 12.5691 12.5691 12.5339 12.6124 12.5116L13.0477 12.288L13.0594 12.282L13.2302 12.1943L13.5196 12.0456C13.6883 11.9589 13.6883 11.7177 13.5196 11.631L13.2302 11.4823L13.0594 11.3945L13.0477 11.3886L12.6124 11.1649C12.5691 11.1427 12.5339 11.1074 12.5116 11.0641L12.288 10.6288L12.282 10.6172L12.1943 10.4464L12.0456 10.157C11.9589 9.98825 11.7177 9.98825 11.631 10.157L11.4823 10.4464L11.3945 10.6172ZM11.8383 12.1789C11.7532 12.0401 11.6364 11.9234 11.4976 11.8383C11.6364 11.7532 11.7532 11.6364 11.8383 11.4976C11.9234 11.6364 12.0401 11.7532 12.1789 11.8383C12.0401 11.9234 11.9234 12.0401 11.8383 12.1789ZM11.9157 3.32064L11.9097 3.33226L11.863 3.42329C11.8407 3.46658 11.8055 3.50182 11.7622 3.52407L11.6712 3.57084L11.6596 3.5768L11.4887 3.66456L11.1993 3.81326C11.0306 3.89995 11.0306 4.14114 11.1993 4.22783L11.4887 4.37653L11.6596 4.46429L11.6712 4.47025L11.7622 4.51702C11.8055 4.53927 11.8407 4.57451 11.863 4.6178L11.9097 4.70883L11.9157 4.72045L12.0035 4.89125L12.1522 5.18066C12.2389 5.34938 12.48 5.34938 12.5667 5.18066L12.7154 4.89125L12.8032 4.72045L12.8092 4.70883L12.8559 4.6178C12.8782 4.57451 12.9134 4.53927 12.9567 4.51702L13.0477 4.47025L13.0594 4.46429L13.2302 4.37653L13.5196 4.22783C13.6883 4.14114 13.6883 3.89995 13.5196 3.81326L13.2302 3.66456L13.0594 3.5768L13.0477 3.57084L12.9567 3.52407C12.9134 3.50182 12.8782 3.46658 12.8559 3.42329L12.8092 3.33226L12.8032 3.32064L12.7154 3.14984L12.5667 2.86043C12.48 2.69171 12.2389 2.69171 12.1522 2.86043L12.0035 3.14984L11.9157 3.32064Z" fill="#776C74"/>
</svg>
