<svg width="10" height="6" viewBox="0 0 10 6" fill="none" xmlns="http://www.w3.org/2000/svg">
<path d="M5.24601 4.42493L8.58261 1.08813C8.69607 0.974805 8.83868 0.916778 9.01044 0.914047C9.18206 0.911453 9.32727 0.96948 9.44605 1.08813C9.5647 1.20691 9.62402 1.35082 9.62402 1.51985C9.62402 1.68887 9.5647 1.83278 9.44605 1.95156L5.76436 5.63325C5.68763 5.70985 5.60673 5.76392 5.52167 5.79546C5.43661 5.82699 5.34473 5.84276 5.24601 5.84276C5.1473 5.84276 5.05541 5.82699 4.97035 5.79546C4.88529 5.76392 4.8044 5.70985 4.72766 5.63325L1.04597 1.95156C0.932652 1.8381 0.874625 1.6955 0.871895 1.52374C0.869301 1.35211 0.927327 1.20691 1.04597 1.08813C1.16476 0.96948 1.30866 0.910156 1.47769 0.910156C1.64672 0.910156 1.79063 0.96948 1.90941 1.08813L5.24601 4.42493Z" fill="#342430"/>
</svg>
