<svg width="17" height="17" viewBox="0 0 17 17" fill="none" xmlns="http://www.w3.org/2000/svg">
<path fill-rule="evenodd" clip-rule="evenodd" d="M2 0C0.895431 0 0 0.89543 0 2V14.38C0 15.4846 0.89543 16.38 2 16.38H14.38C15.4846 16.38 16.38 15.4846 16.38 14.38V2C16.38 0.895431 15.4846 0 14.38 0H2ZM5.26192 11.1181C6.03987 11.896 6.98864 12.285 8.10825 12.285C9.22786 12.285 10.1766 11.896 10.9546 11.1181C11.7325 10.3401 12.1215 9.39135 12.1215 8.27175C12.1215 7.64612 11.9859 7.05288 11.7146 6.492C11.4432 5.93122 11.0677 5.46216 10.5882 5.08482C10.5038 5.02034 10.4128 4.99412 10.315 5.00616C10.2173 5.01811 10.1327 5.06012 10.0614 5.13218C9.93722 5.24678 9.80086 5.33494 9.65228 5.39665C9.50379 5.45837 9.35031 5.48922 9.19183 5.48922C8.83028 5.48922 8.5164 5.36695 8.25019 5.12241C7.98406 4.87778 7.851 4.59186 7.851 4.26465V3.81088C7.851 3.60094 7.75651 3.44523 7.56753 3.34374C7.37846 3.24216 7.19787 3.25482 7.02574 3.38173C6.11607 4.02938 5.4002 4.78008 4.87812 5.63384C4.35604 6.48759 4.095 7.36689 4.095 8.27175C4.095 9.39135 4.48397 10.3401 5.26192 11.1181ZM5.28413 9.77725C5.02648 9.31278 4.89765 8.81095 4.89765 8.27175C4.89765 7.60287 5.08271 6.93364 5.45282 6.26405C5.82293 5.59455 6.3558 4.96719 7.05143 4.38197C7.11047 4.92393 7.34288 5.37775 7.74866 5.7434C8.15445 6.10905 8.6355 6.29187 9.19183 6.29187C9.39695 6.29187 9.59761 6.26289 9.79382 6.20492C9.99002 6.14695 10.1773 6.06 10.3557 5.94406C10.6678 6.2562 10.9064 6.61071 11.0714 7.00757C11.2364 7.40444 11.3189 7.82583 11.3189 8.27175C11.3189 8.81095 11.19 9.31278 10.9324 9.77725C10.6748 10.2417 10.3207 10.6163 9.86994 10.901C9.90971 10.8255 9.93821 10.7502 9.95542 10.675C9.97254 10.5999 9.9811 10.5212 9.9811 10.4389C9.9811 10.1912 9.93446 9.95798 9.84117 9.73913C9.74789 9.52027 9.61237 9.32201 9.43463 9.14436L8.10825 7.84474L6.78696 9.14436C6.6093 9.32201 6.47299 9.52027 6.37801 9.73913C6.28294 9.95798 6.2354 10.1912 6.2354 10.4389C6.2354 10.5212 6.24396 10.5999 6.26109 10.675C6.2783 10.7502 6.30679 10.8255 6.34657 10.901C5.89584 10.6163 5.54169 10.2417 5.28413 9.77725ZM7.34573 9.71652L8.10825 8.96738L8.87077 9.71652C8.96887 9.81462 9.04468 9.92387 9.09819 10.0443C9.1517 10.1647 9.17845 10.2962 9.17845 10.4389C9.17845 10.7243 9.07366 10.9695 8.86408 11.1747C8.6545 11.3798 8.40256 11.4823 8.10825 11.4823C7.81395 11.4823 7.562 11.3798 7.35242 11.1747C7.14284 10.9695 7.03805 10.7243 7.03805 10.4389C7.03805 10.3051 7.06481 10.1758 7.11832 10.051C7.17183 9.9261 7.24763 9.81462 7.34573 9.71652Z" fill="#776C74"/>
</svg>
