<svg width="17" height="17" viewBox="0 0 17 17" fill="none" xmlns="http://www.w3.org/2000/svg">
<path fill-rule="evenodd" clip-rule="evenodd" d="M2 0C0.895431 0 0 0.89543 0 2V14.38C0 15.4846 0.89543 16.38 2 16.38H14.38C15.4846 16.38 16.38 15.4846 16.38 14.38V2C16.38 0.895431 15.4846 0 14.38 0H2ZM6.42909 3.72273C6.49919 3.66042 6.60481 3.66042 6.67491 3.72273L9.98856 6.6682C10.1537 6.81497 10.4065 6.80009 10.5533 6.63498C10.7 6.46987 10.6852 6.21704 10.5201 6.07027L7.2064 3.1248C6.8332 2.79307 6.2708 2.79307 5.8976 3.1248L2.58395 6.07027C2.24877 6.36821 2.057 6.79525 2.057 7.2437V11.2683C2.057 12.1354 2.75991 12.8383 3.627 12.8383H5.382H7.722H9.477C9.69791 12.8383 9.877 12.6592 9.877 12.4383C9.877 12.2174 9.69791 12.0383 9.477 12.0383H8.122V10.0983C8.122 9.5543 7.681 9.1133 7.137 9.1133H5.967C5.423 9.1133 4.982 9.5543 4.982 10.0983V12.0383H3.627C3.20174 12.0383 2.857 11.6936 2.857 11.2683V7.2437C2.857 7.02376 2.95105 6.81432 3.11544 6.6682L6.42909 3.72273ZM7.322 12.0383H5.782V10.0983C5.782 9.99612 5.86483 9.9133 5.967 9.9133H7.137C7.23917 9.9133 7.322 9.99612 7.322 10.0983V12.0383ZM11.706 8.1005C11.8827 7.96795 11.9185 7.71723 11.786 7.5405C11.6535 7.36377 11.4027 7.32795 11.226 7.4605L9.828 8.509C9.44359 8.7973 9.64749 9.409 10.128 9.409H13.923C14.1439 9.409 14.323 9.22991 14.323 9.009C14.323 8.78809 14.1439 8.609 13.923 8.609H11.028L11.706 8.1005ZM9.828 9.896C9.60709 9.896 9.428 10.0751 9.428 10.296C9.428 10.5169 9.60709 10.696 9.828 10.696H12.923L12.4186 11.1763C12.2587 11.3287 12.2525 11.5819 12.4048 11.7419C12.5572 11.9018 12.8104 11.908 12.9704 11.7557L14.1989 10.5857C14.3173 10.4729 14.3551 10.2993 14.2944 10.1474C14.2336 9.99558 14.0866 9.896 13.923 9.896H9.828Z" fill="#776C74"/>
</svg>
