<svg width="17" height="17" viewBox="0 0 17 17" fill="none" xmlns="http://www.w3.org/2000/svg">
<path fill-rule="evenodd" clip-rule="evenodd" d="M2 0C0.895431 0 0 0.89543 0 2V14.38C0 15.4846 0.89543 16.38 2 16.38H14.38C15.4846 16.38 16.38 15.4846 16.38 14.38V2C16.38 0.895431 15.4846 0 14.38 0H2ZM8.22571 5.80418C8.6977 5.80418 9.08032 5.42157 9.08032 4.94959C9.08032 4.47761 8.6977 4.095 8.22571 4.095C7.75372 4.095 7.3711 4.47761 7.3711 4.94959C7.3711 5.42157 7.75372 5.80418 8.22571 5.80418ZM3.752 7.00524C3.86566 6.81581 4.11136 6.75438 4.3008 6.86804L5.63568 7.66895C5.66611 7.59423 5.70006 7.51713 5.73668 7.43986C5.87692 7.14389 6.0784 6.79823 6.30468 6.57176C6.79396 6.08207 7.67285 5.95078 8.29376 6.57158C8.57799 6.85576 8.78038 7.27855 8.90997 7.64317C9.03943 8.00746 9.12312 8.39124 9.12312 8.63485C9.12312 8.85576 8.94403 9.03485 8.72312 9.03485C8.5022 9.03485 8.32312 8.85576 8.32312 8.63485C8.32312 8.52237 8.27209 8.23729 8.15615 7.91107C8.04033 7.58517 7.88665 7.29581 7.72813 7.13732C7.46355 6.87279 7.09319 6.91443 6.8706 7.13721C6.74114 7.26678 6.58653 7.51459 6.45962 7.78242C6.40765 7.8921 6.36424 7.9969 6.33207 8.08678L9.57833 10.0345L10.1655 9.25168C10.5163 8.78397 11.2366 8.84892 11.4981 9.37184L12.3631 11.1019C12.6246 11.6248 12.2443 12.2401 11.6597 12.2401H9.49708C8.84899 12.2401 8.47905 11.5002 8.86791 10.9817L9.09577 10.6779L3.8892 7.55404C3.69977 7.44038 3.63834 7.19468 3.752 7.00524ZM10.7923 9.7492L9.52414 11.4401H11.6378L10.7923 9.7492ZM5.6598 9.32907C5.86665 9.40663 5.97145 9.6372 5.89388 9.84405L4.82562 12.6927C4.74805 12.8995 4.51748 13.0043 4.31063 12.9268C4.10379 12.8492 3.99899 12.6186 4.07656 12.4118L5.14482 9.56314C5.22239 9.3563 5.45295 9.2515 5.6598 9.32907ZM7.29978 10.0158C7.5207 10.0158 7.69978 10.1948 7.69978 10.4158V12.5522C7.69978 12.7731 7.5207 12.9522 7.29978 12.9522C7.07887 12.9522 6.89978 12.7731 6.89978 12.5522V10.4158C6.89978 10.1948 7.07887 10.0158 7.29978 10.0158Z" fill="#776C74"/>
</svg>
