<svg width="17" height="17" viewBox="0 0 17 17" fill="none" xmlns="http://www.w3.org/2000/svg">
<path fill-rule="evenodd" clip-rule="evenodd" d="M2 0C0.895431 0 0 0.89543 0 2V14.38C0 15.4846 0.89543 16.38 2 16.38H14.38C15.4846 16.38 16.38 15.4846 16.38 14.38V2C16.38 0.895431 15.4846 0 14.38 0H2ZM8.06803 4.08268C8.13818 4.02032 8.24389 4.02032 8.31404 4.08268L11.6285 7.02889C11.793 7.17507 11.8871 7.38459 11.8871 7.60462V11.6302C11.8871 12.0556 11.5422 12.4005 11.1168 12.4005H9.76133V10.4599C9.76133 9.91585 9.32026 9.47478 8.77618 9.47478H7.60589C7.0618 9.47478 6.62074 9.91585 6.62074 10.4599V12.4005H5.2653C4.83987 12.4005 4.495 12.0556 4.495 11.6302V7.60462C4.495 7.38459 4.58909 7.17507 4.75354 7.02889L8.06803 4.08268ZM11.1168 13.2005H9.36133H7.02074H5.2653C4.39805 13.2005 3.695 12.4975 3.695 11.6302V7.60462C3.695 7.15608 3.88681 6.72895 4.22205 6.43096L7.53654 3.48475C7.9098 3.15297 8.47227 3.15297 8.84553 3.48475L12.16 6.43096C12.4953 6.72895 12.6871 7.15608 12.6871 7.60462V11.6302C12.6871 12.4975 11.984 13.2005 11.1168 13.2005ZM8.96133 10.4599V12.4005H7.42074V10.4599C7.42074 10.3577 7.50363 10.2748 7.60589 10.2748H8.77618C8.87844 10.2748 8.96133 10.3577 8.96133 10.4599Z" fill="#776C74"/>
</svg>
