<svg width="40" height="41" viewBox="0 0 40 41" fill="none" xmlns="http://www.w3.org/2000/svg">
<path d="M18.2507 27.0656L24.379 20.9373C24.6268 20.6895 24.9254 20.5628 25.2748 20.5573C25.624 20.552 25.9279 20.6787 26.1865 20.9373C26.4451 21.1959 26.5744 21.4971 26.5744 21.841C26.5744 22.1849 26.4451 22.4862 26.1865 22.7448L19.3052 29.6265C19.0038 29.9276 18.6523 30.0781 18.2507 30.0781C17.849 30.0781 17.4975 29.9276 17.1961 29.6265L13.8148 26.2448C13.567 25.997 13.4404 25.6984 13.4348 25.349C13.4295 24.9998 13.5562 24.6959 13.8148 24.4373C14.0734 24.1787 14.3747 24.0494 14.7186 24.0494C15.0625 24.0494 15.3637 24.1787 15.6223 24.4373L18.2507 27.0656ZM8.8469 36.5398C8.00496 36.5398 7.29232 36.2481 6.70898 35.6648C6.12565 35.0815 5.83398 34.3688 5.83398 33.5269V11.2194C5.83398 10.3774 6.12565 9.66479 6.70898 9.08145C7.29232 8.49812 8.00496 8.20645 8.8469 8.20645H11.1544V5.9627C11.1544 5.59743 11.2768 5.29243 11.5215 5.0477C11.7662 4.80326 12.0712 4.68104 12.4365 4.68104C12.802 4.68104 13.107 4.80326 13.3515 5.0477C13.5962 5.29243 13.7186 5.59743 13.7186 5.9627V8.20645H26.3469V5.93104C26.3469 5.57632 26.4665 5.27923 26.7057 5.03979C26.9451 4.80062 27.2422 4.68104 27.5969 4.68104C27.9516 4.68104 28.2486 4.80062 28.4877 5.03979C28.7272 5.27923 28.8469 5.57632 28.8469 5.93104V8.20645H31.1544C31.9963 8.20645 32.709 8.49812 33.2923 9.08145C33.8757 9.66479 34.1673 10.3774 34.1673 11.2194V33.5269C34.1673 34.3688 33.8757 35.0815 33.2923 35.6648C32.709 36.2481 31.9963 36.5398 31.1544 36.5398H8.8469ZM8.8469 34.0398H31.1544C31.2827 34.0398 31.4002 33.9863 31.5069 33.8794C31.6138 33.7727 31.6673 33.6552 31.6673 33.5269V17.886H8.33398V33.5269C8.33398 33.6552 8.38746 33.7727 8.4944 33.8794C8.60107 33.9863 8.71857 34.0398 8.8469 34.0398Z" fill="#313131"/>
</svg>
