<svg width="40" height="41" viewBox="0 0 40 41" fill="none" xmlns="http://www.w3.org/2000/svg">
<path d="M16.8717 34.4543C14.1175 33.7557 11.8671 32.2968 10.1204 30.0777C8.37347 27.8588 7.5 25.291 7.5 22.3743C7.5 20.8765 7.76125 19.4445 8.28375 18.0781C8.80625 16.7114 9.5375 15.4577 10.4775 14.3168C10.7083 14.0582 10.9872 13.9246 11.3142 13.916C11.6411 13.9074 11.9424 14.041 12.2179 14.3168C12.4488 14.5474 12.5685 14.8288 12.5771 15.161C12.5854 15.4935 12.4743 15.806 12.2438 16.0985C11.5129 16.9704 10.9563 17.9417 10.5738 19.0122C10.1913 20.0828 10 21.2035 10 22.3743C10 24.6671 10.6918 26.7061 12.0754 28.4914C13.459 30.2767 15.2299 31.462 17.3879 32.0472C17.6635 32.1264 17.89 32.2814 18.0675 32.5122C18.2447 32.7428 18.3333 32.996 18.3333 33.2718C18.3333 33.6885 18.1896 34.0164 17.9021 34.2556C17.6149 34.495 17.2714 34.5613 16.8717 34.4543ZM23.1283 34.4864C22.7286 34.5933 22.3851 34.5228 22.0979 34.2747C21.8104 34.027 21.6667 33.6947 21.6667 33.2781C21.6667 33.0195 21.7553 32.7749 21.9325 32.5443C22.11 32.3135 22.3365 32.1532 22.6121 32.0635C24.7596 31.4074 26.5278 30.199 27.9167 28.4385C29.3056 26.6777 30 24.6563 30 22.3743C30 19.5965 29.0278 17.2354 27.0833 15.291C25.1389 13.3465 22.7778 12.3743 20 12.3743H19.4104L20.7821 13.746C21.0235 13.9877 21.1442 14.2804 21.1442 14.6243C21.1442 14.9685 21.0235 15.2613 20.7821 15.5027C20.5407 15.744 20.2479 15.8647 19.9038 15.8647C19.5599 15.8647 19.2672 15.744 19.0258 15.5027L15.7021 12.1789C15.546 12.0228 15.4358 11.8582 15.3717 11.6852C15.3078 11.5121 15.2758 11.3252 15.2758 11.1243C15.2758 10.9235 15.3078 10.7365 15.3717 10.5635C15.4358 10.3904 15.546 10.2258 15.7021 10.0697L19.0258 6.74599C19.2672 6.5046 19.5599 6.3839 19.9038 6.3839C20.2479 6.3839 20.5407 6.5046 20.7821 6.74599C21.0235 6.98765 21.1442 7.28043 21.1442 7.62432C21.1442 7.96849 21.0235 8.26127 20.7821 8.50266L19.4104 9.87432H20C23.4872 9.87432 26.4424 11.0858 28.8654 13.5089C31.2885 15.932 32.5 18.8871 32.5 22.3743C32.5 25.2632 31.6239 27.8188 29.8717 30.041C28.1194 32.2632 25.8717 33.745 23.1283 34.4864Z" fill="#342430"/>
</svg>
