<svg width="41" height="41" viewBox="0 0 41 41" fill="none" xmlns="http://www.w3.org/2000/svg">
<path d="M20.5 36.5404C18.6261 36.5404 16.8286 36.2209 15.1075 35.582C13.3864 34.9431 11.8025 34.0404 10.3558 32.8737C10.0631 32.6323 9.8975 32.3273 9.85917 31.9587C9.82056 31.5901 9.93056 31.2765 10.1892 31.0179C10.4478 30.7593 10.7501 30.6327 11.0963 30.6383C11.4424 30.6436 11.7618 30.7669 12.0546 31.0083C12.3835 31.3097 12.7317 31.5811 13.0992 31.8224C13.4669 32.0638 13.8506 32.2808 14.25 32.4733V26.9891H11.0129C10.171 26.9891 9.45833 26.692 8.875 26.0979C8.29167 25.504 8 24.7754 8 23.912V14.1524C8 12.5116 8.57 11.1105 9.71 9.94911C10.85 8.78773 12.2244 8.20703 13.8333 8.20703H18.3204C18.7499 8.20703 19.1083 8.35078 19.3958 8.63828C19.6831 8.9255 19.8267 9.28397 19.8267 9.7137V16.4604H29.9871C30.829 16.4604 31.5417 16.7601 32.125 17.3595C32.7083 17.9587 33 18.6845 33 19.537V23.912C33 24.7754 32.7083 25.504 32.125 26.0979C31.5417 26.692 30.829 26.9891 29.9871 26.9891H26.75V32.4733C27.1667 32.2638 27.5614 32.0356 27.9342 31.7887C28.3072 31.542 28.6668 31.268 29.0129 30.9666C29.2885 30.7358 29.601 30.6263 29.9504 30.6383C30.2996 30.6499 30.595 30.7765 30.8367 31.0179C31.095 31.2765 31.2103 31.5762 31.1825 31.917C31.1547 32.2579 31.0031 32.549 30.7275 32.7904C29.2703 33.974 27.6725 34.8949 25.9342 35.5533C24.1961 36.2113 22.3847 36.5404 20.5 36.5404ZM20.5 34.0404C21.1303 34.0404 21.7579 33.9923 22.3829 33.8962C23.0079 33.8001 23.6303 33.6665 24.25 33.4954V26.9891H16.75V33.4954C17.3697 33.6665 17.9921 33.8001 18.6171 33.8962C19.2421 33.9923 19.8697 34.0404 20.5 34.0404Z" fill="#342430"/>
<path d="M27.3793 13.5952C27.2797 13.5952 27.1796 13.5773 27.0792 13.5416C26.9787 13.5058 26.8903 13.4497 26.8139 13.3734L26.1458 12.7661C25.3211 12.0142 24.5849 11.2755 23.9369 10.5501C23.289 9.82465 22.9651 9.04752 22.9651 8.21868C22.9651 7.5586 23.1876 7.00596 23.6328 6.56077C24.078 6.11565 24.6306 5.8931 25.2907 5.8931C25.6657 5.8931 26.0362 5.97957 26.4021 6.15252C26.7679 6.32546 27.0951 6.60631 27.3837 6.99507C27.6723 6.60631 27.9995 6.32546 28.3653 6.15252C28.7312 5.97957 29.1017 5.8931 29.4767 5.8931C30.1368 5.8931 30.6894 6.11565 31.1346 6.56077C31.5797 7.00596 31.8023 7.5586 31.8023 8.21868C31.8023 9.05651 31.4728 9.84228 30.8139 10.576C30.155 11.3097 29.4204 12.0421 28.61 12.7732L27.9489 13.3734C27.8726 13.4497 27.7835 13.5058 27.6816 13.5416C27.5796 13.5773 27.4788 13.5952 27.3793 13.5952Z" fill="#342430"/>
</svg>
