<svg width="40" height="41" viewBox="0 0 40 41" fill="none" xmlns="http://www.w3.org/2000/svg">
<path d="M8.36591 34.3285C8.01118 34.3285 7.71424 34.2089 7.47507 33.9697C7.23563 33.7303 7.11591 33.4332 7.11591 33.0785V31.4118H6.66716C5.50271 31.4118 4.51716 31.0085 3.71049 30.2018C2.90382 29.3954 2.50049 28.4099 2.50049 27.2451V18.9118C2.50049 18.1021 2.7841 17.4136 3.35132 16.8464C3.91882 16.2789 4.60743 15.9951 5.41716 15.9951C6.22688 15.9951 6.91549 16.2789 7.48299 16.8464C8.05021 17.4136 8.33382 18.1021 8.33382 18.9118V25.1618H31.6672V18.9118C31.6672 18.1021 31.9508 17.4136 32.518 16.8464C33.0855 16.2789 33.7741 15.9951 34.5838 15.9951C35.3935 15.9951 36.0822 16.2789 36.6497 16.8464C37.2169 17.4136 37.5005 18.1021 37.5005 18.9118V27.2451C37.5005 28.4099 37.0972 29.3954 36.2905 30.2018C35.4838 31.0085 34.4983 31.4118 33.3338 31.4118H32.8851V33.0785C32.8851 33.4226 32.7681 33.7169 32.5342 33.9614C32.3001 34.2061 32.011 34.3285 31.6672 34.3285C31.3124 34.3285 31.0155 34.2089 30.7763 33.9697C30.5369 33.7303 30.4172 33.4332 30.4172 33.0785V31.4118H9.61591V33.0785C9.61591 33.4332 9.49618 33.7303 9.25674 33.9697C9.01757 34.2089 8.72063 34.3285 8.36591 34.3285ZM10.8338 22.6618V18.9118C10.8338 17.6299 10.446 16.4836 9.67049 15.473C8.89465 14.4622 7.89354 13.803 6.66716 13.4955V11.7326C6.66716 10.5679 7.07049 9.58235 7.87715 8.77596C8.68382 7.9693 9.66938 7.56596 10.8338 7.56596H29.1672C30.3316 7.56596 31.3172 7.9693 32.1238 8.77596C32.9305 9.58235 33.3338 10.5679 33.3338 11.7326V13.4955C32.0902 13.7453 31.0849 14.3814 30.318 15.4039C29.5508 16.4264 29.1672 17.5957 29.1672 18.9118V22.6618H10.8338Z" fill="#313131"/>
</svg>
