<svg width="45" height="43" viewBox="0 0 45 43" fill="none" xmlns="http://www.w3.org/2000/svg">
<path d="M0.83374 22.3142V16.2887C0.83374 15.4468 1.12541 14.7342 1.70874 14.1508C2.29207 13.5675 3.00471 13.2758 3.84666 13.2758H26.1542C26.9961 13.2758 27.7087 13.5675 28.2921 14.1508C28.8754 14.7342 29.1671 15.4468 29.1671 16.2887V22.3142H0.83374ZM3.84666 41.6092C3.00471 41.6092 2.29207 41.3175 1.70874 40.7342C1.12541 40.1508 0.83374 39.4382 0.83374 38.5962V23.7887H29.1671V38.5962C29.1671 39.4382 28.8754 40.1508 28.2921 40.7342C27.7087 41.3175 26.9961 41.6092 26.1542 41.6092H3.84666ZM8.33374 19.4296C8.80596 19.4296 9.2018 19.2698 9.52124 18.9504C9.84068 18.631 10.0004 18.2351 10.0004 17.7629C10.0004 17.2907 9.84068 16.8948 9.52124 16.5754C9.2018 16.256 8.80596 16.0962 8.33374 16.0962C7.86152 16.0962 7.46568 16.256 7.14624 16.5754C6.8268 16.8948 6.66707 17.2907 6.66707 17.7629C6.66707 18.2351 6.8268 18.631 7.14624 18.9504C7.46568 19.2698 7.86152 19.4296 8.33374 19.4296ZM13.3337 30.1346H16.6671C17.0485 30.1346 17.3682 30.0057 17.6262 29.7479C17.8843 29.4898 18.0133 29.1701 18.0133 28.7887C18.0133 28.4073 17.8843 28.0876 17.6262 27.8296C17.3682 27.5715 17.0485 27.4425 16.6671 27.4425H13.3337C12.9524 27.4425 12.6326 27.5715 12.3746 27.8296C12.1165 28.0876 11.9875 28.4073 11.9875 28.7887C11.9875 29.1701 12.1165 29.4898 12.3746 29.7479C12.6326 30.0057 12.9524 30.1346 13.3337 30.1346ZM15.0004 19.4296C15.4726 19.4296 15.8685 19.2698 16.1879 18.9504C16.5074 18.631 16.6671 18.2351 16.6671 17.7629C16.6671 17.2907 16.5074 16.8948 16.1879 16.5754C15.8685 16.256 15.4726 16.0962 15.0004 16.0962C14.5282 16.0962 14.1324 16.256 13.8129 16.5754C13.4935 16.8948 13.3337 17.2907 13.3337 17.7629C13.3337 18.2351 13.4935 18.631 13.8129 18.9504C14.1324 19.2698 14.5282 19.4296 15.0004 19.4296ZM21.6671 19.4296C22.1393 19.4296 22.5351 19.2698 22.8546 18.9504C23.174 18.631 23.3337 18.2351 23.3337 17.7629C23.3337 17.2907 23.174 16.8948 22.8546 16.5754C22.5351 16.256 22.1393 16.0962 21.6671 16.0962C21.1949 16.0962 20.799 16.256 20.4796 16.5754C20.1601 16.8948 20.0004 17.2907 20.0004 17.7629C20.0004 18.2351 20.1601 18.631 20.4796 18.9504C20.799 19.2698 21.1949 19.4296 21.6671 19.4296Z" fill="#342430"/>
<path d="M27.1289 9.83533L28.0797 12.2973C28.4955 13.3741 29.3466 14.2251 30.4233 14.641L32.8854 15.5918C34.7897 16.3272 34.7897 19.0216 32.8854 19.7571L30.4233 20.7079C29.3466 21.1237 28.4955 21.9748 28.0797 23.0515L27.1289 25.5135C26.3935 27.4179 23.6991 27.4179 22.9636 25.5135L22.0128 23.0515C21.597 21.9748 20.7459 21.1237 19.6692 20.7079L17.2072 19.7571C15.3028 19.0216 15.3028 16.3272 17.2072 15.5918L19.6692 14.641C20.7459 14.2251 21.597 13.3741 22.0128 12.2973L22.9636 9.83533C23.6991 7.93099 26.3935 7.93099 27.1289 9.83533Z" fill="#342430" stroke="#E7F3FA" stroke-width="1.86047"/>
<path d="M35.8065 2.24698C36.113 1.4535 37.2356 1.4535 37.5421 2.24698L38.7288 5.31984C38.8233 5.56455 39.0167 5.75798 39.2614 5.85249L42.3343 7.03921C43.1278 7.34564 43.1278 8.46831 42.3343 8.77475L39.2614 9.96147C39.0167 10.056 38.8233 10.2494 38.7288 10.4941L37.5421 13.567C37.2356 14.3604 36.113 14.3604 35.8065 13.567L34.6198 10.4941C34.5253 10.2494 34.3319 10.056 34.0872 9.96147L31.0143 8.77475C30.2208 8.46831 30.2208 7.34564 31.0143 7.03921L34.0872 5.85249C34.3319 5.75798 34.5253 5.56455 34.6198 5.31984L35.8065 2.24698Z" fill="#342430"/>
</svg>
