<svg width="41" height="41" viewBox="0 0 41 41" fill="none" xmlns="http://www.w3.org/2000/svg">
<path d="M8.00108 20.4993C6.95136 20.4993 6.06386 20.1369 5.33858 19.4122C4.61302 18.6872 4.25024 17.7999 4.25024 16.7501C4.25024 15.7004 4.61261 14.8129 5.33733 14.0876C6.06233 13.3621 6.94969 12.9993 7.99941 12.9993C9.04913 12.9993 9.93663 13.3617 10.6619 14.0864C11.3875 14.8114 11.7502 15.6988 11.7502 16.7485C11.7502 17.7982 11.3879 18.6857 10.6632 19.411C9.93816 20.1365 9.0508 20.4993 8.00108 20.4993ZM15.5011 13.8326C14.4514 13.8326 13.5639 13.4703 12.8386 12.7456C12.113 12.0206 11.7502 11.1332 11.7502 10.0835C11.7502 9.03375 12.1126 8.14625 12.8373 7.42097C13.5623 6.69542 14.4497 6.33264 15.4994 6.33264C16.5491 6.33264 17.4366 6.695 18.1619 7.41973C18.8875 8.14473 19.2502 9.03209 19.2502 10.0818C19.2502 11.1315 18.8879 12.019 18.1632 12.7443C17.4382 13.4699 16.5508 13.8326 15.5011 13.8326ZM25.5011 13.8326C24.4514 13.8326 23.5639 13.4703 22.8386 12.7456C22.113 12.0206 21.7502 11.1332 21.7502 10.0835C21.7502 9.03375 22.1126 8.14625 22.8373 7.42097C23.5623 6.69542 24.4497 6.33264 25.4994 6.33264C26.5491 6.33264 27.4366 6.695 28.1619 7.41973C28.8875 8.14473 29.2502 9.03209 29.2502 10.0818C29.2502 11.1315 28.8879 12.019 28.1632 12.7443C27.4382 13.4699 26.5508 13.8326 25.5011 13.8326ZM33.0011 20.4993C31.9514 20.4993 31.0639 20.1369 30.3386 19.4122C29.613 18.6872 29.2502 17.7999 29.2502 16.7501C29.2502 15.7004 29.6126 14.8129 30.3373 14.0876C31.0623 13.3621 31.9497 12.9993 32.9994 12.9993C34.0491 12.9993 34.9366 13.3617 35.6619 14.0864C36.3875 14.8114 36.7502 15.6988 36.7502 16.7485C36.7502 17.7982 36.3879 18.6857 35.6632 19.411C34.9382 20.1365 34.0508 20.4993 33.0011 20.4993ZM11.5836 37.166C10.4405 37.166 9.48802 36.7281 8.72608 35.8522C7.96441 34.9767 7.58358 33.9424 7.58358 32.7493C7.58358 31.3476 8.06858 30.1344 9.03858 29.1097C10.0089 28.0853 10.964 27.0613 11.904 26.0376C12.7095 25.166 13.4068 24.2258 13.9957 23.2172C14.5843 22.2086 15.2759 21.2599 16.0707 20.371C16.6498 19.7024 17.3136 19.1399 18.0619 18.6835C18.8102 18.2274 19.623 17.9993 20.5002 17.9993C21.3894 17.9993 22.2132 18.2163 22.9715 18.6501C23.7298 19.0838 24.3933 19.6403 24.9619 20.3197C25.7397 21.2086 26.4244 22.1617 27.0161 23.1789C27.608 24.1958 28.3015 25.1488 29.0965 26.0376C30.0365 27.0613 30.9916 28.0853 31.9619 29.1097C32.9319 30.1344 33.4169 31.3476 33.4169 32.7493C33.4169 33.9424 33.0361 34.9767 32.2744 35.8522C31.5125 36.7281 30.56 37.166 29.4169 37.166C27.9169 37.166 26.4308 37.041 24.9586 36.791C23.4864 36.541 22.0002 36.416 20.5002 36.416C19.0002 36.416 17.5141 36.541 16.0419 36.791C14.5697 37.041 13.0836 37.166 11.5836 37.166Z" fill="#342430"/>
</svg>
