<svg width="40" height="41" viewBox="0 0 40 41" fill="none" xmlns="http://www.w3.org/2000/svg">
<path d="M34.9289 24.3776L23.6693 35.6372C23.3666 35.9383 23.0259 36.1643 22.6473 36.3151C22.2687 36.4657 21.8912 36.541 21.5148 36.541C21.1381 36.541 20.7614 36.4657 20.3848 36.3151C20.0081 36.1643 19.6692 35.9383 19.3681 35.6372L5.04435 21.3293C4.76018 21.056 4.54268 20.7351 4.39185 20.3668C4.24129 19.9985 4.16602 19.611 4.16602 19.2043V7.90306C4.16602 7.07028 4.46032 6.35722 5.04893 5.76389C5.63782 5.17083 6.3531 4.87431 7.19477 4.87431H18.496C18.8985 4.87431 19.2884 4.95597 19.6656 5.11931C20.0431 5.28236 20.3702 5.50194 20.6469 5.77806L34.9289 20.086C35.2342 20.3888 35.4569 20.7293 35.5969 21.1076C35.7369 21.4863 35.8069 21.8658 35.8069 22.2464C35.8069 22.6269 35.7369 23.0011 35.5969 23.3689C35.4569 23.7369 35.2342 24.0732 34.9289 24.3776ZM10.8743 13.6722C11.4555 13.6722 11.9491 13.4697 12.3552 13.0647C12.761 12.6597 12.9639 12.1678 12.9639 11.5889C12.9639 11.0058 12.7614 10.5103 12.3564 10.1022C11.9514 9.69389 11.4595 9.48972 10.8806 9.48972C10.2975 9.48972 9.80199 9.69319 9.39393 10.1001C8.9856 10.5071 8.78143 11.0013 8.78143 11.5826C8.78143 12.1638 8.9849 12.6574 9.39185 13.0635C9.79879 13.4693 10.293 13.6722 10.8743 13.6722ZM22.7364 28.3068L27.1148 23.8485C27.3881 23.5751 27.6017 23.2542 27.7556 22.8856C27.9095 22.5169 27.9864 22.1179 27.9864 21.6885C27.9864 20.8615 27.6938 20.1494 27.1085 19.5522C26.5232 18.955 25.8159 18.6564 24.9864 18.6564C24.4514 18.6564 23.9235 18.8039 23.4027 19.0989C22.8816 19.3936 22.3027 19.9021 21.666 20.6243C20.961 19.8679 20.3618 19.3508 19.8685 19.0731C19.3755 18.7953 18.8678 18.6564 18.3456 18.6564C17.5162 18.6564 16.8088 18.955 16.2235 19.5522C15.6382 20.1494 15.3456 20.8615 15.3456 21.6885C15.3456 22.1179 15.4225 22.5169 15.5764 22.8856C15.7303 23.2542 15.9439 23.5751 16.2173 23.8485L20.5956 28.3068C20.8967 28.6082 21.2535 28.7589 21.666 28.7589C22.0785 28.7589 22.4353 28.6082 22.7364 28.3068Z" fill="#313131"/>
</svg>
