<svg width="41" height="41" viewBox="0 0 41 41" fill="none" xmlns="http://www.w3.org/2000/svg">
<path d="M18.0001 22.3741V24.8741C18.0001 25.3464 18.1598 25.7422 18.4792 26.0616C18.7987 26.3811 19.1945 26.5408 19.6667 26.5408H21.3334C21.8056 26.5408 22.2015 26.3811 22.5209 26.0616C22.8404 25.7422 23.0001 25.3464 23.0001 24.8741V22.3741H25.5001C25.9723 22.3741 26.3681 22.2144 26.6876 21.895C27.007 21.5755 27.1667 21.1797 27.1667 20.7075V19.0408C27.1667 18.5686 27.007 18.1727 26.6876 17.8533C26.3681 17.5339 25.9723 17.3741 25.5001 17.3741H23.0001V14.8741C23.0001 14.4019 22.8404 14.0061 22.5209 13.6866C22.2015 13.3672 21.8056 13.2075 21.3334 13.2075H19.6667C19.1945 13.2075 18.7987 13.3672 18.4792 13.6866C18.1598 14.0061 18.0001 14.4019 18.0001 14.8741V17.3741H15.5001C15.0279 17.3741 14.632 17.5339 14.3126 17.8533C13.9931 18.1727 13.8334 18.5686 13.8334 19.0408V20.7075C13.8334 21.1797 13.9931 21.5755 14.3126 21.895C14.632 22.2144 15.0279 22.3741 15.5001 22.3741H18.0001ZM20.5001 37.2075C20.3056 37.2075 20.1251 37.1936 19.9584 37.1658C19.7917 37.138 19.6251 37.0964 19.4584 37.0408C15.7084 35.7908 12.7223 33.4783 10.5001 30.1033C8.27786 26.7283 7.16675 23.0964 7.16675 19.2075V11.3325C7.16675 10.638 7.36814 10.013 7.77091 9.45747C8.17369 8.90191 8.69453 8.49914 9.33341 8.24914L19.3334 4.49914C19.7223 4.36025 20.1112 4.2908 20.5001 4.2908C20.889 4.2908 21.2779 4.36025 21.6667 4.49914L31.6667 8.24914C32.3056 8.49914 32.8265 8.90191 33.2292 9.45747C33.632 10.013 33.8334 10.638 33.8334 11.3325V19.2075C33.8334 23.0964 32.7223 26.7283 30.5001 30.1033C28.2779 33.4783 25.2917 35.7908 21.5417 37.0408C21.3751 37.0964 21.2084 37.138 21.0417 37.1658C20.8751 37.1936 20.6945 37.2075 20.5001 37.2075Z" fill="#342430"/>
</svg>
