<svg width="40" height="41" viewBox="0 0 40 41" fill="none" xmlns="http://www.w3.org/2000/svg">
<path d="M6.36676 35.8028H10.5784V32.0528C10.5784 31.6986 10.6983 31.4017 10.938 31.1619C11.1775 30.9225 11.4744 30.8028 11.8288 30.8028C12.1833 30.8028 12.4801 30.9225 12.7193 31.1619C12.9587 31.4017 13.0784 31.6986 13.0784 32.0528V35.8028H18.7513V32.0528C18.7513 31.6986 18.8712 31.4017 19.1109 31.1619C19.3507 30.9225 19.6476 30.8028 20.0018 30.8028C20.3562 30.8028 20.653 30.9225 20.8922 31.1619C21.1316 31.4017 21.2513 31.6986 21.2513 32.0528V35.8028H26.9243V32.0528C26.9243 31.6986 27.0441 31.4017 27.2838 31.1619C27.5236 30.9225 27.8207 30.8028 28.1751 30.8028C28.5293 30.8028 28.8261 30.9225 29.0655 31.1619C29.3047 31.4017 29.4243 31.6986 29.4243 32.0528V35.8028H33.6359C33.8068 35.8028 33.9457 35.736 34.0526 35.6024C34.1595 35.4688 34.1862 35.3218 34.1326 35.1615L32.2738 28.3028H7.72885L5.8701 35.1615C5.81648 35.3218 5.84315 35.4688 5.9501 35.6024C6.05704 35.736 6.19593 35.8028 6.36676 35.8028ZM33.7643 38.3028H6.23843C5.29398 38.3028 4.52593 37.9256 3.93426 37.1711C3.34232 36.417 3.17454 35.5761 3.43093 34.6486L5.73843 26.0753V22.3732C5.73843 21.5635 6.02218 20.8749 6.58968 20.3074C7.1569 19.7401 7.84537 19.4565 8.6551 19.4565H15.5784V7.53361C15.5784 6.305 16.0084 5.26056 16.8684 4.40028C17.7284 3.54028 18.7727 3.11028 20.0013 3.11028C21.23 3.11028 22.2743 3.54028 23.1343 4.40028C23.9943 5.26056 24.4243 6.305 24.4243 7.53361V19.4565H31.3476C32.1573 19.4565 32.8458 19.7401 33.413 20.3074C33.9805 20.8749 34.2643 21.5635 34.2643 22.3732V26.0753L36.5718 34.6807C36.8795 35.5974 36.7332 36.4303 36.1326 37.1794C35.5323 37.9283 34.7429 38.3028 33.7643 38.3028Z" fill="#313131"/>
</svg>
