<svg width="13" height="13" viewBox="0 0 13 13" fill="none" xmlns="http://www.w3.org/2000/svg">
<g clip-path="url(#clip0_201_1013)">
<path d="M12.1946 9.50349C12.1346 9.35949 12.0746 9.20299 12.0146 9.07099C11.9186 8.85449 11.7261 8.44649 11.7261 8.44649C10.8971 6.64449 10.0036 4.82149 9.07162 3.01699C8.98962 2.85849 8.84363 2.57249 8.74713 2.38049C8.62713 2.16449 8.50713 1.93599 8.31463 1.71999C7.93063 1.23949 7.37813 0.974991 6.78963 0.974991C6.18913 0.974991 5.64863 1.23949 5.25213 1.69549C5.07163 1.91199 4.93962 2.13999 4.81962 2.35649C4.72362 2.54849 4.49513 2.99299 4.49513 2.99299C3.57013 4.79499 2.66912 6.62049 1.84062 8.42249C1.84062 8.42249 1.64863 8.84299 1.55213 9.05899C1.49213 9.19099 1.43213 9.33549 1.37212 9.49149C1.21612 9.93599 1.16813 10.3565 1.22813 10.789C1.36013 11.69 1.96063 12.4465 2.78963 12.783C3.10163 12.915 3.42613 12.975 3.76262 12.975C3.85862 12.975 3.97863 12.963 4.07512 12.951C4.47162 12.903 4.88013 12.771 5.27612 12.5425C5.76862 12.266 6.23712 11.87 6.76562 11.2935C7.29413 11.87 7.77462 12.2665 8.25513 12.5425C8.65163 12.771 9.06013 12.903 9.45613 12.951C9.55212 12.963 9.67212 12.975 9.76863 12.975C10.1051 12.975 10.4411 12.915 10.7416 12.7825C11.5826 12.446 12.1711 11.6775 12.3031 10.7885C12.3991 10.3685 12.3511 9.94799 12.1946 9.50349ZM6.77763 10.128C6.12913 9.31099 5.70863 8.54249 5.56463 7.89349C5.50463 7.61699 5.49263 7.37699 5.52863 7.16099C5.55263 6.96899 5.62462 6.80049 5.72062 6.65649C5.94863 6.33199 6.33313 6.12799 6.77763 6.12799C7.22213 6.12799 7.61863 6.31999 7.83463 6.65649C7.93063 6.80049 8.00262 6.96899 8.02663 7.16099C8.06262 7.37699 8.05062 7.62949 7.99062 7.89349C7.84662 8.53049 7.42613 9.29949 6.77763 10.128ZM11.5701 10.6925C11.4861 11.317 11.0656 11.8575 10.4771 12.098C10.1886 12.218 9.87663 12.254 9.56413 12.218C9.26363 12.182 8.96362 12.086 8.65112 11.9055C8.21863 11.6655 7.78613 11.293 7.28163 10.7405C8.07463 9.76749 8.55513 8.87849 8.73513 8.08599C8.81913 7.71349 8.83112 7.37699 8.79513 7.06499C8.74713 6.76449 8.63912 6.48849 8.47062 6.24799C8.09862 5.70799 7.47412 5.39549 6.77763 5.39549C6.08113 5.39549 5.45613 5.71999 5.08413 6.24849C4.91613 6.48849 4.80763 6.76499 4.75963 7.06549C4.71163 7.37799 4.72362 7.72599 4.81962 8.08649C4.99962 8.87899 5.49213 9.77999 6.27313 10.753C5.78063 11.3055 5.33612 11.678 4.90363 11.918C4.59113 12.098 4.29113 12.1945 3.99063 12.2305C3.66613 12.2665 3.35413 12.2185 3.07762 12.1105C2.48912 11.8705 2.06862 11.3295 1.98462 10.705C1.94862 10.4045 1.97263 10.1045 2.09263 9.76799C2.12863 9.64799 2.18862 9.52799 2.24862 9.38349C2.33262 9.19149 2.53712 8.75899 2.53712 8.75899C3.36613 6.96949 4.25463 5.14349 5.17963 3.36549C5.17963 3.36549 5.40763 2.92099 5.50413 2.74099C5.60013 2.54849 5.70813 2.36849 5.84063 2.21249C6.09313 1.92449 6.42913 1.76799 6.80163 1.76799C7.17413 1.76799 7.51013 1.92399 7.76263 2.21249C7.89463 2.36849 8.00262 2.54899 8.09912 2.74099C8.19513 2.92099 8.34312 3.20899 8.42362 3.36549C9.33912 5.15399 10.2256 6.98099 11.0541 8.77099C11.0541 8.77099 11.2341 9.19149 11.3306 9.38349C11.3906 9.52749 11.4506 9.64799 11.4866 9.76799C11.5821 10.08 11.6181 10.3805 11.5701 10.6925Z" fill="#E14A4A"/>
</g>
<defs>
<clipPath id="clip0_201_1013">
<rect width="12" height="12" fill="white" transform="translate(0.777344 0.974991)"/>
</clipPath>
</defs>
</svg>
