<svg width="16" height="13" viewBox="0 0 16 13" fill="none" xmlns="http://www.w3.org/2000/svg">
<path d="M2.71622 12.1899C2.5573 12.1899 2.42421 12.1363 2.31697 12.0289C2.20961 11.9214 2.15593 11.7883 2.15593 11.6295V10.8821H1.95471C1.43259 10.8821 0.990676 10.7013 0.628976 10.3396C0.267276 9.97802 0.0864258 9.5361 0.0864258 9.01386V5.27728C0.0864258 4.72639 0.274438 4.27731 0.650461 3.93006C1.02661 3.58269 1.46136 3.409 1.95471 3.409V2.05823C1.95471 1.53598 2.13556 1.09407 2.49726 0.732491C2.85896 0.370791 3.30087 0.189941 3.823 0.189941H12.0435C12.5656 0.189941 13.0075 0.370791 13.3692 0.732491C13.7309 1.09407 13.9117 1.53598 13.9117 2.05823V3.409C14.4243 3.409 14.8638 3.5863 15.2304 3.9409C15.5968 4.29538 15.78 4.74084 15.78 5.27728V9.01386C15.78 9.5361 15.5992 9.97802 15.2375 10.3396C14.8758 10.7013 14.4339 10.8821 13.9117 10.8821H13.7105V11.6295C13.7105 11.7883 13.6593 11.9214 13.5568 12.0289C13.4543 12.1363 13.3235 12.1899 13.1646 12.1899C13.0058 12.1899 12.8727 12.1363 12.7652 12.0289C12.6577 11.9214 12.6039 11.7883 12.6039 11.6295V10.8821H3.2769V11.6295C3.2769 11.7885 3.22315 11.9217 3.11566 12.0291C3.00818 12.1363 2.87503 12.1899 2.71622 12.1899ZM1.95471 9.76117H13.9117C14.1235 9.76117 14.301 9.68955 14.4442 9.54632C14.5874 9.40308 14.6591 9.22559 14.6591 9.01386V5.27728C14.6591 5.06554 14.5874 4.88806 14.4442 4.74482C14.301 4.60159 14.1235 4.52997 13.9117 4.52997C13.7 4.52997 13.5225 4.60159 13.3793 4.74482C13.236 4.88806 13.1644 5.06554 13.1644 5.27728V8.07971H2.70203V5.27728C2.70203 5.06554 2.63041 4.88806 2.48717 4.74482C2.34394 4.60159 2.16645 4.52997 1.95471 4.52997C1.74297 4.52997 1.56549 4.60159 1.42225 4.74482C1.27901 4.88806 1.2074 5.06554 1.2074 5.27728V9.01386C1.2074 9.22559 1.27901 9.40308 1.42225 9.54632C1.56549 9.68955 1.74297 9.76117 1.95471 9.76117ZM3.823 6.95874H12.0435V5.27728C12.0435 4.97462 12.112 4.69824 12.249 4.44814C12.386 4.19804 12.5666 3.98866 12.7908 3.82002V2.05823C12.7908 1.84649 12.7192 1.669 12.5759 1.52577C12.4327 1.38253 12.2552 1.31091 12.0435 1.31091H3.823C3.61126 1.31091 3.43377 1.38253 3.29054 1.52577C3.1473 1.669 3.07568 1.84649 3.07568 2.05823V3.82002C3.29988 3.98866 3.48048 4.19804 3.61749 4.44814C3.75449 4.69824 3.823 4.97462 3.823 5.27728V6.95874Z" fill="#5805BE"/>
</svg>
