<svg width="12" height="15" viewBox="0 0 12 15" fill="none" xmlns="http://www.w3.org/2000/svg">
<path d="M4 13.975V11.1178C4 10.7234 4.3198 10.4036 4.71429 10.4036H7.28571C7.6802 10.4036 8 10.7234 8 11.1178V13.975M1 12.5464L1 3.22498C1 2.12041 1.89543 1.22498 3 1.22498L9 1.22498C10.1046 1.22498 11 2.12041 11 3.22498V12.5464C11 13.3354 10.3604 13.975 9.57143 13.975H2.42857C1.63959 13.975 1 13.3354 1 12.5464Z" stroke="#A422D1" stroke-linecap="round" stroke-linejoin="round"/>
<path d="M4 4.22498V3.22498H5V4.22498H4Z" fill="#A422D1"/>
<path d="M4 6.22498V5.22498H5V6.22498H4Z" fill="#A422D1"/>
<path d="M4 8.22498V7.22498H5V8.22498H4Z" fill="#A422D1"/>
<path d="M7 4.22498V3.22498H8V4.22498H7Z" fill="#A422D1"/>
<path d="M7 6.22498V5.22498H8V6.22498H7Z" fill="#A422D1"/>
<path d="M7 8.22498V7.22498H8V8.22498H7Z" fill="#A422D1"/>
</svg>
