<svg width="13" height="14" viewBox="0 0 13 14" fill="none" xmlns="http://www.w3.org/2000/svg">
<circle cx="6.79961" cy="2.17499" r="1.2" fill="#D7DB24"/>
<path d="M1.03184 12.6744C0.934875 12.933 1.06588 13.2212 1.32444 13.3182C1.583 13.4151 1.8712 13.2841 1.96816 13.0256L1.03184 12.6744ZM3.46816 9.02555C3.56512 8.76699 3.43412 8.47879 3.17556 8.38183C2.917 8.28487 2.6288 8.41587 2.53184 8.67443L3.46816 9.02555ZM6 9.84999C6 9.57385 5.77614 9.34999 5.5 9.34999C5.22386 9.34999 5 9.57385 5 9.84999H6ZM5 12.85C5 13.1261 5.22386 13.35 5.5 13.35C5.77614 13.35 6 13.1261 6 12.85H5ZM1.25725 4.92124C1.02046 4.77917 0.713328 4.85595 0.571254 5.09274C0.429179 5.32953 0.505962 5.63666 0.742752 5.77874L1.25725 4.92124ZM12.1382 11.1264L11.691 11.35L12.1382 11.1264ZM10.0146 8.4972L9.61459 8.1972L10.0146 8.4972ZM10.8618 8.5736L11.309 8.34999L10.8618 8.5736ZM1.96816 13.0256L3.46816 9.02555L2.53184 8.67443L1.03184 12.6744L1.96816 13.0256ZM5 9.84999V12.85H6V9.84999H5ZM0.742752 5.77874L8.24275 10.2787L8.75725 9.42124L1.25725 4.92124L0.742752 5.77874ZM9.61459 8.1972L7.7 10.75L8.5 11.35L10.4146 8.7972L9.61459 8.1972ZM8.5 12.35H11.691V11.35H8.5V12.35ZM12.5854 10.9028L11.309 8.34999L10.4146 8.7972L11.691 11.35L12.5854 10.9028ZM11.691 12.35C12.4344 12.35 12.9179 11.5677 12.5854 10.9028L11.691 11.35V12.35ZM7.7 10.75C7.20557 11.4092 7.67595 12.35 8.5 12.35V11.35L7.7 10.75ZM10.4146 8.7972V8.7972L11.309 8.34999C10.9766 7.68509 10.0606 7.6025 9.61459 8.1972L10.4146 8.7972Z" fill="#D7DB24"/>
<path d="M7.49853 7.34994C7.49853 6.84994 7.12022 5.47153 6.49853 4.84994C5.87685 4.22836 4.99978 4.34977 4.5 4.84999C4.00049 5.34994 3.5 6.51666 3.5 6.84999" stroke="#D7DB24" stroke-linecap="round"/>
</svg>
