<svg width="11" height="12" viewBox="0 0 11 12" fill="none" xmlns="http://www.w3.org/2000/svg">
<path d="M9.45032 8.99088L9.90592 9.22498L9.45032 9.45907L9.30748 9.53246L9.23409 9.67529L9 10.1309L8.76591 9.67529L8.69252 9.53246L8.54968 9.45907L8.09408 9.22498L8.54968 8.99088L8.69252 8.91749L8.76591 8.77466L9 8.31905L9.23409 8.77466L9.30748 8.91749L9.45032 8.99088ZM3.20115 4.64236L3.34399 4.56897L3.41738 4.42613L4.5 2.31905L5.58262 4.42613L5.65601 4.56897L5.79885 4.64236L7.90592 5.72498L5.79885 6.80759L5.65601 6.88098L5.58262 7.02382L4.5 9.1309L3.41738 7.02382L3.34399 6.88098L3.20115 6.80759L1.09408 5.72498L3.20115 4.64236ZM9.21939 1.66059L9.36222 1.5872L9.43561 1.44436L9.5 1.31905L9.56439 1.44436L9.63778 1.5872L9.78061 1.66059L9.90593 1.72498L9.78061 1.78936L9.63778 1.86275L9.56439 2.00559L9.5 2.1309L9.43561 2.00559L9.36222 1.86275L9.21939 1.78936L9.09407 1.72498L9.21939 1.66059Z" stroke="#22A7D1"/>
</svg>
