<svg width="12" height="13" viewBox="0 0 12 13" fill="none" xmlns="http://www.w3.org/2000/svg">
<path d="M6.12569 12.1899C4.63437 12.1899 3.37059 11.6718 2.33437 10.6356C1.29814 9.59938 0.780029 8.3356 0.780029 6.84428C0.780029 5.63901 1.12773 4.46778 1.82315 3.33058C2.51856 2.19338 3.4721 1.19345 4.68378 0.330777C4.91305 0.161735 5.15361 0.144866 5.40545 0.280171C5.65717 0.415356 5.78303 0.622768 5.78303 0.902405V1.50682C5.78303 1.94267 5.96027 2.32352 6.31474 2.64937C6.66934 2.9751 7.08743 3.13796 7.56901 3.13796C7.78011 3.13796 7.98455 3.09686 8.18234 3.01465C8.38025 2.93245 8.56188 2.81502 8.72724 2.66237C8.82227 2.56639 8.93489 2.51044 9.06509 2.49452C9.19528 2.47848 9.31657 2.51341 9.42895 2.5993C10.0677 3.10191 10.5678 3.7267 10.9293 4.47366C11.2907 5.22075 11.4713 6.01095 11.4713 6.84428C11.4713 8.3356 10.9532 9.59938 9.91701 10.6356C8.88078 11.6718 7.61701 12.1899 6.12569 12.1899ZM1.84916 6.84428C1.84916 7.5625 2.02076 8.23095 2.36395 8.84962C2.70702 9.46829 3.17874 9.96722 3.77912 10.3464C3.72614 10.2459 3.68819 10.1456 3.66526 10.0454C3.64245 9.94542 3.63105 9.84058 3.63105 9.73094C3.63105 9.40105 3.69436 9.09035 3.821 8.79883C3.94751 8.50732 4.12908 8.24324 4.36572 8.00661L6.12569 6.2755L7.89243 8.00661C8.12918 8.24324 8.30968 8.50732 8.43394 8.79883C8.5582 9.09035 8.62033 9.40105 8.62033 9.73094C8.62033 9.84058 8.60892 9.94542 8.58612 10.0454C8.56319 10.1456 8.52523 10.2459 8.47225 10.3464C9.07263 9.96722 9.54435 9.46829 9.88743 8.84962C10.2306 8.23095 10.4022 7.5625 10.4022 6.84428C10.4022 6.25032 10.2923 5.68903 10.0726 5.1604C9.8528 4.63177 9.53503 4.15957 9.11926 3.7438C8.88167 3.89823 8.63221 4.01405 8.37086 4.09127C8.10952 4.16848 7.84224 4.20709 7.56901 4.20709C6.82799 4.20709 6.18722 3.96357 5.64672 3.47652C5.10621 2.98947 4.79664 2.38499 4.718 1.66309C3.79142 2.44261 3.08163 3.27825 2.58864 4.17003C2.09566 5.06192 1.84916 5.95334 1.84916 6.84428ZM6.12569 7.77086L5.11001 8.76872C4.97934 8.89939 4.87837 9.04788 4.80709 9.21419C4.73582 9.3805 4.70018 9.55275 4.70018 9.73094C4.70018 10.1111 4.83976 10.4378 5.11892 10.711C5.39808 10.9842 5.73367 11.1208 6.12569 11.1208C6.5177 11.1208 6.85329 10.9842 7.13245 10.711C7.41161 10.4378 7.5512 10.1111 7.5512 9.73094C7.5512 9.54087 7.51556 9.36565 7.44428 9.20528C7.37301 9.04491 7.27203 8.89939 7.14136 8.76872L6.12569 7.77086Z" fill="#CD1114"/>
</svg>
