<svg width="15" height="13" viewBox="0 0 15 13" fill="none" xmlns="http://www.w3.org/2000/svg">
<path d="M10.0205 4.75183L5.97455 1.15541C5.70391 0.91485 5.29609 0.91485 5.02545 1.15541L0.97948 4.75183C0.674497 5.02293 0.5 5.41151 0.5 5.81956V10.7336C0.5 11.5226 1.13959 12.1622 1.92857 12.1622H4.07143M4.07143 12.1622V9.30502C4.07143 8.91053 4.39123 8.59074 4.78571 8.59074H6.21429C6.60878 8.59074 6.92857 8.91053 6.92857 9.30502V12.1622M4.07143 12.1622H6.92857M6.92857 12.1622H9.07143M9.0354 9.60927H13.7778L12.0533 11.1093M13.7778 8.21968L9.0354 8.21968L10.7599 6.71968" stroke="#DB6624" stroke-linecap="round" stroke-linejoin="round"/>
</svg>
