<svg width="115" height="20" viewBox="0 0 115 20" fill="none" xmlns="http://www.w3.org/2000/svg">
<path d="M10.4133 0.654978C10.6101 0.348597 11.0579 0.348598 11.2547 0.654979L14.1379 5.14379C14.2056 5.2492 14.3104 5.32536 14.4316 5.35718L19.5916 6.71212C19.9438 6.80461 20.0822 7.2305 19.8516 7.51233L16.4735 11.6415C16.3941 11.7385 16.3541 11.8617 16.3613 11.9868L16.6672 17.313C16.6881 17.6765 16.3258 17.9398 15.9865 17.8076L11.0155 15.8707C10.8988 15.8252 10.7692 15.8252 10.6525 15.8707L5.68147 17.8076C5.34218 17.9398 4.97989 17.6765 5.00077 17.313L5.30669 11.9868C5.31387 11.8617 5.27383 11.7385 5.1945 11.6415L1.81634 7.51233C1.58576 7.2305 1.72415 6.80461 2.07634 6.71212L7.2364 5.35718C7.35758 5.32536 7.4624 5.2492 7.53011 5.14379L10.4133 0.654978Z" fill="#F8C719"/>
<path d="M33.7473 0.654978C33.9441 0.348597 34.3919 0.348598 34.5887 0.654979L37.4718 5.14379C37.5396 5.2492 37.6444 5.32536 37.7655 5.35718L42.9256 6.71212C43.2778 6.80461 43.4162 7.2305 43.1856 7.51233L39.8075 11.6415C39.7281 11.7385 39.6881 11.8617 39.6953 11.9868L40.0012 17.313C40.0221 17.6765 39.6598 17.9398 39.3205 17.8076L34.3495 15.8707C34.2328 15.8252 34.1032 15.8252 33.9864 15.8707L29.0155 17.8076C28.6762 17.9398 28.3139 17.6765 28.3348 17.313L28.6407 11.9868C28.6479 11.8617 28.6078 11.7385 28.5285 11.6415L25.1503 7.51233C24.9197 7.2305 25.0581 6.80461 25.4103 6.71212L30.5704 5.35718C30.6916 5.32536 30.7964 5.2492 30.8641 5.14379L33.7473 0.654978Z" fill="#F8C719"/>
<path d="M57.0793 0.654978C57.2761 0.348597 57.7239 0.348598 57.9207 0.654979L60.8039 5.14379C60.8716 5.2492 60.9764 5.32536 61.0976 5.35718L66.2576 6.71212C66.6098 6.80461 66.7482 7.2305 66.5176 7.51233L63.1395 11.6415C63.0602 11.7385 63.0201 11.8617 63.0273 11.9868L63.3332 17.313C63.3541 17.6765 62.9918 17.9398 62.6525 17.8076L57.6815 15.8707C57.5648 15.8252 57.4352 15.8252 57.3185 15.8707L52.3475 17.8076C52.0082 17.9398 51.6459 17.6765 51.6668 17.313L51.9727 11.9868C51.9799 11.8617 51.9398 11.7385 51.8605 11.6415L48.4824 7.51233C48.2518 7.2305 48.3902 6.80461 48.7424 6.71212L53.9024 5.35718C54.0236 5.32536 54.1284 5.2492 54.1961 5.14379L57.0793 0.654978Z" fill="#F8C719"/>
<path d="M80.4133 0.654978C80.6101 0.348597 81.0579 0.348598 81.2547 0.654979L84.1379 5.14379C84.2056 5.2492 84.3104 5.32536 84.4316 5.35718L89.5916 6.71212C89.9438 6.80461 90.0822 7.2305 89.8516 7.51233L86.4735 11.6415C86.3941 11.7385 86.3541 11.8617 86.3613 11.9868L86.6672 17.313C86.6881 17.6765 86.3258 17.9398 85.9865 17.8076L81.0155 15.8707C80.8988 15.8252 80.7692 15.8252 80.6525 15.8707L75.6815 17.8076C75.3422 17.9398 74.9799 17.6765 75.0008 17.313L75.3067 11.9868C75.3139 11.8617 75.2738 11.7385 75.1945 11.6415L71.8163 7.51233C71.5858 7.2305 71.7241 6.80461 72.0763 6.71212L77.2364 5.35718C77.3576 5.32536 77.4624 5.2492 77.5301 5.14379L80.4133 0.654978Z" fill="#F8C719"/>
<path d="M103.747 0.654978C103.944 0.348597 104.392 0.348598 104.589 0.654979L107.472 5.14379C107.54 5.2492 107.644 5.32536 107.766 5.35718L112.926 6.71212C113.278 6.80461 113.416 7.2305 113.186 7.51233L109.807 11.6415C109.728 11.7385 109.688 11.8617 109.695 11.9868L110.001 17.313C110.022 17.6765 109.66 17.9398 109.32 17.8076L104.349 15.8707C104.233 15.8252 104.103 15.8252 103.986 15.8707L99.0155 17.8076C98.6762 17.9398 98.3139 17.6765 98.3348 17.313L98.6407 11.9868C98.6479 11.8617 98.6078 11.7385 98.5285 11.6415L95.1503 7.51233C94.9197 7.2305 95.0581 6.80461 95.4103 6.71212L100.57 5.35718C100.692 5.32536 100.796 5.2492 100.864 5.14379L103.747 0.654978Z" fill="#F8C719"/>
</svg>
