<svg width="18" height="19" viewBox="0 0 18 19" fill="none" xmlns="http://www.w3.org/2000/svg">
<path d="M7.16257 12.3437L13.6414 5.8648C13.7529 5.75317 13.8834 5.69617 14.0329 5.6938C14.1824 5.69142 14.3154 5.74842 14.4318 5.8648C14.5481 5.98117 14.6063 6.1148 14.6063 6.26567C14.6063 6.41667 14.5481 6.55036 14.4318 6.66673L7.63713 13.473C7.5015 13.6085 7.34332 13.6762 7.16257 13.6762C6.98182 13.6762 6.82363 13.6085 6.688 13.473L3.55675 10.3417C3.44525 10.2301 3.39025 10.0976 3.39175 9.94423C3.39313 9.79098 3.452 9.65617 3.56838 9.5398C3.68475 9.42342 3.81838 9.36523 3.96925 9.36523C4.12025 9.36523 4.25394 9.42342 4.37032 9.5398L7.16257 12.3437Z" fill="#342430"/>
</svg>
