<svg width="32" height="32" viewBox="0 0 32 32" fill="none" xmlns="http://www.w3.org/2000/svg">
<path d="M8.05198 23.3337L4.36465 27.0207C4.16821 27.2173 3.94732 27.2666 3.70198 27.1683C3.45665 27.0699 3.33398 26.8822 3.33398 26.6053V5.744C3.33398 5.07044 3.56732 4.50033 4.03398 4.03366C4.50065 3.567 5.07076 3.33366 5.74432 3.33366H26.257C26.9305 3.33366 27.5007 3.567 27.9673 4.03366C28.434 4.50033 28.6673 5.07044 28.6673 5.744V20.9233C28.6673 21.5969 28.434 22.167 27.9673 22.6337C27.5007 23.1003 26.9305 23.3337 26.257 23.3337H8.05198ZM16.0007 16.4287L18.38 17.872C18.5989 18.0104 18.8178 18.0028 19.0367 17.849C19.2553 17.6952 19.3357 17.4867 19.2777 17.2233L18.6493 14.5157L20.7623 12.69C20.9674 12.5071 21.0298 12.2918 20.9493 12.044C20.8691 11.796 20.6904 11.6609 20.4133 11.6387L17.639 11.4053L16.5493 8.85166C16.4469 8.61055 16.264 8.49 16.0007 8.49C15.7373 8.49 15.5544 8.61055 15.452 8.85166L14.3623 11.4053L11.588 11.6387C11.3109 11.6609 11.1322 11.796 11.052 12.044C10.9715 12.2918 11.0339 12.5071 11.239 12.69L13.352 14.5157L12.7237 17.2233C12.6657 17.4867 12.746 17.6952 12.9647 17.849C13.1835 18.0028 13.4024 18.0104 13.6213 17.872L16.0007 16.4287Z" fill="#342430"/>
</svg>
