<svg width="32" height="32" viewBox="0 0 32 32" fill="none" xmlns="http://www.w3.org/2000/svg">
<path d="M16.0007 28.6666C14.264 28.6666 12.6251 28.3337 11.084 27.6679C9.54287 27.0022 8.19887 26.0957 7.05198 24.9486C5.90487 23.8017 4.99843 22.4577 4.33265 20.9166C3.66687 19.3755 3.33398 17.7366 3.33398 15.9999C3.33398 14.2495 3.66687 12.6072 4.33265 11.0729C4.99843 9.53873 5.90487 8.19817 7.05198 7.05128C8.19887 5.90417 9.54287 4.99773 11.084 4.33195C12.6251 3.66617 14.264 3.33328 16.0007 3.33328C17.7511 3.33328 19.3934 3.66617 20.9277 4.33195C22.4619 4.99773 23.8024 5.90417 24.9493 7.05128C26.0964 8.19817 27.0029 9.53873 27.6687 11.0729C28.3344 12.6072 28.6673 14.2495 28.6673 15.9999C28.6673 17.7366 28.3344 19.3755 27.6687 20.9166C27.0029 22.4577 26.0964 23.8017 24.9493 24.9486C23.8024 26.0957 22.4619 27.0022 20.9277 27.6679C19.3934 28.3337 17.7511 28.6666 16.0007 28.6666ZM16.0007 26.6383C16.6811 25.7358 17.2538 24.8256 17.7187 23.9076C18.1835 22.9896 18.5622 21.9862 18.8547 20.8973H13.1467C13.4562 22.0204 13.8392 23.041 14.2957 23.959C14.7519 24.877 15.3202 25.7701 16.0007 26.6383ZM13.4187 26.2716C12.9075 25.5383 12.4485 24.7046 12.0417 23.7706C11.6348 22.8364 11.3185 21.8786 11.093 20.8973H6.56998C7.27421 22.282 8.21865 23.4453 9.40332 24.3873C10.588 25.3291 11.9264 25.9572 13.4187 26.2716ZM18.5827 26.2716C20.0749 25.9572 21.4133 25.3291 22.598 24.3873C23.7827 23.4453 24.7271 22.282 25.4313 20.8973H20.9083C20.6399 21.8871 20.3022 22.8491 19.8953 23.7833C19.4887 24.7175 19.0511 25.547 18.5827 26.2716ZM5.73132 18.8973H10.688C10.6042 18.4017 10.5434 17.9158 10.5057 17.4396C10.4681 16.9636 10.4493 16.4837 10.4493 15.9999C10.4493 15.5162 10.4681 15.0363 10.5057 14.5603C10.5434 14.0841 10.6042 13.5982 10.688 13.1026H5.73132C5.6031 13.5555 5.50487 14.0264 5.43665 14.5153C5.36821 15.0042 5.33398 15.4991 5.33398 15.9999C5.33398 16.5008 5.36821 16.9957 5.43665 17.4846C5.50487 17.9735 5.6031 18.4444 5.73132 18.8973ZM12.6877 18.8973H19.3137C19.3972 18.4017 19.4579 17.9202 19.4957 17.4526C19.5332 16.9851 19.552 16.5008 19.552 15.9999C19.552 15.4991 19.5332 15.0148 19.4957 14.5473C19.4579 14.0797 19.3972 13.5982 19.3137 13.1026H12.6877C12.6041 13.5982 12.5434 14.0797 12.5057 14.5473C12.4681 15.0148 12.4493 15.4991 12.4493 15.9999C12.4493 16.5008 12.4681 16.9851 12.5057 17.4526C12.5434 17.9202 12.6041 18.4017 12.6877 18.8973ZM21.3133 18.8973H26.27C26.3982 18.4444 26.4964 17.9735 26.5647 17.4846C26.6331 16.9957 26.6673 16.5008 26.6673 15.9999C26.6673 15.4991 26.6331 15.0042 26.5647 14.5153C26.4964 14.0264 26.3982 13.5555 26.27 13.1026H21.3133C21.3971 13.5982 21.4579 14.0841 21.4957 14.5603C21.5332 15.0363 21.552 15.5162 21.552 15.9999C21.552 16.4837 21.5332 16.9636 21.4957 17.4396C21.4579 17.9158 21.3971 18.4017 21.3133 18.8973ZM20.9083 11.1026H25.4313C24.7187 9.70084 23.7807 8.53751 22.6173 7.61262C21.454 6.68795 20.1091 6.05551 18.5827 5.71528C19.0938 6.49128 19.5484 7.34006 19.9467 8.26162C20.3451 9.18295 20.6657 10.13 20.9083 11.1026ZM13.1467 11.1026H18.8547C18.5451 9.98795 18.1558 8.96095 17.6867 8.02162C17.2173 7.08228 16.6553 6.19562 16.0007 5.36162C15.346 6.19562 14.784 7.08228 14.3147 8.02162C13.8455 8.96095 13.4562 9.98795 13.1467 11.1026ZM6.56998 11.1026H11.093C11.3357 10.13 11.6562 9.18295 12.0547 8.26162C12.4529 7.34006 12.9075 6.49128 13.4187 5.71528C11.8835 6.05551 10.5365 6.69017 9.37765 7.61928C8.21854 8.54817 7.28265 9.70928 6.56998 11.1026Z" fill="black" fill-opacity="0.7"/>
</svg>
