<svg width="41" height="41" viewBox="0 0 41 41" fill="none" xmlns="http://www.w3.org/2000/svg">
<rect x="-0.601928" y="0.598065" width="38.8" height="38.8" rx="11.4" transform="matrix(-0.999995 -0.00321928 -0.00321928 0.999995 39.7313 0.445575)" stroke="#5D5059" stroke-width="1.2"/>
<path d="M18.0382 20.3739L25.5951 12.8655C25.7944 12.6674 25.892 12.4313 25.8877 12.1569C25.8834 11.8826 25.7822 11.6457 25.5842 11.4462C25.3862 11.2469 25.15 11.1468 24.8757 11.1459C24.6013 11.145 24.3644 11.2436 24.165 11.4416L16.4846 19.0882C16.3033 19.2684 16.1687 19.4706 16.0809 19.6946C15.9928 19.9187 15.9484 20.1429 15.9477 20.3672C15.947 20.5915 15.9899 20.816 16.0765 21.0406C16.163 21.2652 16.2962 21.4683 16.4763 21.6497L24.1228 29.3456C24.3209 29.5449 24.5545 29.6424 24.8236 29.6381C25.093 29.6338 25.3273 29.5326 25.5266 29.3346C25.7259 29.1366 25.826 28.9004 25.8269 28.6261C25.8278 28.3517 25.7292 28.1148 25.5312 27.9153L18.0382 20.3739Z" fill="#5D5059"/>
</svg>
