<svg width="24" height="24" viewBox="0 0 24 24" fill="none" xmlns="http://www.w3.org/2000/svg">
<path d="M9.16924 12L16.702 4.46725C16.9007 4.26858 16.9974 4.03208 16.9922 3.75775C16.9871 3.48342 16.8852 3.24683 16.6865 3.048C16.4878 2.84933 16.2513 2.75 15.977 2.75C15.7027 2.75 15.4661 2.84933 15.2672 3.048L7.61149 10.7193C7.43082 10.9001 7.2969 11.1027 7.20974 11.327C7.1224 11.5513 7.07874 11.7757 7.07874 12C7.07874 12.2243 7.1224 12.4487 7.20974 12.673C7.2969 12.8973 7.43082 13.0999 7.61149 13.2808L15.2827 20.952C15.4814 21.1507 15.7153 21.2474 15.9845 21.2423C16.2538 21.2371 16.4878 21.1352 16.6865 20.9365C16.8852 20.7378 16.9845 20.5013 16.9845 20.227C16.9845 19.9527 16.8852 19.7161 16.6865 19.5173L9.16924 12Z" fill="#5D5059"/>
</svg>
