<svg width="42" height="41" viewBox="0 0 42 41" fill="none" xmlns="http://www.w3.org/2000/svg">
<rect x="1.53442" y="0.916913" width="38.8" height="38.8" rx="11.4" transform="rotate(-0.184451 1.53442 0.916913)" stroke="#5D5059" stroke-width="1.2"/>
<path d="M23.8275 20.2453L16.2706 12.7368C16.0713 12.5388 15.9738 12.3026 15.9781 12.0283C15.9823 11.7539 16.0835 11.517 16.2815 11.3175C16.4795 11.1182 16.7157 11.0181 16.9901 11.0172C17.2644 11.0164 17.5013 11.1149 17.7008 11.313L25.3812 18.9595C25.5624 19.1398 25.697 19.3419 25.7849 19.566C25.8729 19.79 25.9173 20.0142 25.918 20.2385C25.9188 20.4629 25.8758 20.6874 25.7892 20.912C25.7028 21.1366 25.5695 21.3396 25.3894 21.521L17.7429 29.2169C17.5449 29.4162 17.3113 29.5137 17.0421 29.5094C16.7727 29.5051 16.5384 29.404 16.3391 29.2059C16.1398 29.0079 16.0397 28.7717 16.0388 28.4974C16.0379 28.2231 16.1365 27.9862 16.3345 27.7867L23.8275 20.2453Z" fill="#5D5059"/>
</svg>
