<svg width="32" height="32" viewBox="0 0 32 32" fill="none" xmlns="http://www.w3.org/2000/svg">
<path d="M14.6003 17.4208L12.4363 15.2771C12.2516 15.0925 12.0229 14.998 11.7503 14.9938C11.4776 14.9896 11.2378 15.0908 11.0309 15.2975C10.8378 15.4908 10.7413 15.725 10.7413 16.0001C10.7413 16.2752 10.8378 16.5095 11.0309 16.7028L13.7566 19.4285C13.9977 19.6693 14.2789 19.7898 14.6003 19.7898C14.9216 19.7898 15.2028 19.6693 15.4439 19.4285L20.9696 13.9028C21.1678 13.7043 21.2656 13.4722 21.2629 13.2065C21.2605 12.9407 21.1627 12.7043 20.9696 12.4975C20.7627 12.2908 20.5251 12.184 20.2566 12.1771C19.9884 12.1702 19.7508 12.2702 19.5439 12.4771L14.6003 17.4208ZM11.2133 28.2438L9.36961 25.1438L5.88228 24.3948C5.58317 24.3368 5.34428 24.1796 5.16561 23.9231C4.98695 23.6667 4.91561 23.3889 4.95161 23.0898L5.29261 19.5028L2.92095 16.7898C2.71584 16.5711 2.61328 16.3079 2.61328 16.0001C2.61328 15.6923 2.71584 15.4291 2.92095 15.2105L5.29261 12.4975L4.95161 8.91045C4.91561 8.61134 4.98695 8.33356 5.16561 8.07712C5.34428 7.82068 5.58317 7.66345 5.88228 7.60545L9.36961 6.85645L11.2133 3.75645C11.3739 3.49334 11.5927 3.3139 11.8696 3.21812C12.1465 3.12234 12.4277 3.1369 12.7133 3.26179L16.0003 4.65145L19.2873 3.26179C19.5728 3.1369 19.8541 3.12234 20.1309 3.21812C20.4078 3.3139 20.6266 3.49334 20.7873 3.75645L22.6309 6.85645L26.1183 7.60545C26.4174 7.66345 26.6563 7.82068 26.8349 8.07712C27.0136 8.33356 27.0849 8.61134 27.0489 8.91045L26.7079 12.4975L29.0796 15.2105C29.2847 15.4291 29.3873 15.6923 29.3873 16.0001C29.3873 16.3079 29.2847 16.5711 29.0796 16.7898L26.7079 19.5028L27.0489 23.0898C27.0849 23.3889 27.0136 23.6667 26.8349 23.9231C26.6563 24.1796 26.4174 24.3368 26.1183 24.3948L22.6309 25.1438L20.7873 28.2438C20.6266 28.5069 20.4078 28.6863 20.1309 28.7821C19.8541 28.8779 19.5728 28.8633 19.2873 28.7385L16.0003 27.3488L12.7133 28.7385C12.4277 28.8633 12.1465 28.8779 11.8696 28.7821C11.5927 28.6863 11.3739 28.5069 11.2133 28.2438Z" fill="#342430"/>
</svg>
