<svg width="19" height="18" viewBox="0 0 19 18" fill="none" xmlns="http://www.w3.org/2000/svg">
<path d="M9.41329 0.654978C9.61008 0.348597 10.0579 0.348598 10.2547 0.654979L13.1379 5.14379C13.2056 5.2492 13.3104 5.32536 13.4316 5.35718L18.5916 6.71212C18.9438 6.80461 19.0822 7.2305 18.8516 7.51233L15.4735 11.6415C15.3941 11.7385 15.3541 11.8617 15.3613 11.9868L15.6672 17.313C15.6881 17.6765 15.3258 17.9398 14.9865 17.8076L10.0155 15.8707C9.89877 15.8252 9.7692 15.8252 9.65246 15.8707L4.68147 17.8076C4.34218 17.9398 3.97989 17.6765 4.00077 17.313L4.30669 11.9868C4.31387 11.8617 4.27383 11.7385 4.1945 11.6415L0.816339 7.51233C0.585765 7.2305 0.724146 6.80461 1.07634 6.71212L6.2364 5.35718C6.35758 5.32536 6.4624 5.2492 6.53011 5.14379L9.41329 0.654978Z" fill="#F8C719"/>
</svg>
