<svg width="12" height="12" viewBox="0 0 12 12" fill="none" xmlns="http://www.w3.org/2000/svg">
<path d="M5.74758 0.871503C5.86566 0.687674 6.13434 0.687674 6.25242 0.871503L7.98232 3.56479C8.02295 3.62804 8.08584 3.67373 8.15855 3.69282L11.2546 4.50579C11.4659 4.56128 11.5489 4.81681 11.4106 4.98592L9.38369 7.46343C9.33609 7.52161 9.31207 7.59554 9.31638 7.67059L9.49993 10.8663C9.51246 11.0844 9.29508 11.2424 9.09151 11.1631L6.10891 10.001C6.03887 9.97366 5.96113 9.97366 5.89109 10.001L2.90849 11.1631C2.70491 11.2424 2.48754 11.0844 2.50007 10.8663L2.68362 7.67059C2.68793 7.59554 2.66391 7.52161 2.61631 7.46343L0.589413 4.98592C0.451068 4.81681 0.534097 4.56128 0.745415 4.50579L3.84145 3.69282C3.91416 3.67373 3.97705 3.62804 4.01768 3.56479L5.74758 0.871503Z" fill="#FCE009"/>
</svg>
