<svg width="24" height="25" viewBox="0 0 24 25" fill="none" xmlns="http://www.w3.org/2000/svg">
<path d="M10.95 13.7554L9.35775 12.1629C9.20892 12.0142 9.03483 11.9383 8.8355 11.9351C8.63617 11.932 8.45892 12.0079 8.30375 12.1629C8.14875 12.318 8.07125 12.4963 8.07125 12.6976C8.07125 12.8988 8.14875 13.077 8.30375 13.2321L10.3173 15.2611C10.4981 15.4418 10.709 15.5321 10.95 15.5321C11.191 15.5321 11.4019 15.4418 11.5827 15.2611L15.727 11.1169C15.8757 10.968 15.9516 10.7914 15.9548 10.5869C15.9579 10.3825 15.882 10.2028 15.727 10.0476C15.5718 9.89246 15.3936 9.81488 15.1923 9.81488C14.9911 9.81488 14.8129 9.89246 14.6578 10.0476L10.95 13.7554ZM12 22.0609C11.8962 22.0609 11.7943 22.0525 11.6942 22.0359C11.5942 22.0192 11.4974 21.9942 11.4037 21.9609C9.29492 21.2109 7.61708 19.8811 6.37025 17.9716C5.12342 16.062 4.5 14.0014 4.5 11.7899V7.28613C4.5 6.9078 4.60967 6.56646 4.829 6.26213C5.04817 5.95763 5.33017 5.7368 5.675 5.59963L11.3672 3.47463C11.5814 3.39763 11.7923 3.35913 12 3.35913C12.2077 3.35913 12.4186 3.39763 12.6328 3.47463L18.325 5.59963C18.6698 5.7368 18.9518 5.95763 19.171 6.26213C19.3903 6.56646 19.5 6.9078 19.5 7.28613V11.7899C19.5 14.0014 18.8766 16.062 17.6298 17.9716C16.3829 19.8811 14.7051 21.2109 12.5963 21.9609C12.5026 21.9942 12.4058 22.0192 12.3058 22.0359C12.2058 22.0525 12.1038 22.0609 12 22.0609Z" fill="#3FA1D7"/>
</svg>
