<svg width="33" height="32" viewBox="0 0 33 32" fill="none" xmlns="http://www.w3.org/2000/svg">
<path d="M15.1 17.4211L12.977 15.2978C12.7786 15.0996 12.5464 14.9983 12.2807 14.9941C12.0149 14.9899 11.7786 15.0911 11.5717 15.2978C11.365 15.5047 11.2617 15.7423 11.2617 16.0108C11.2617 16.279 11.365 16.5166 11.5717 16.7234L14.2563 19.4288C14.4974 19.6697 14.7787 19.7901 15.1 19.7901C15.4213 19.7901 15.7026 19.6697 15.9437 19.4288L21.4693 13.9031C21.6676 13.7047 21.7688 13.4691 21.773 13.1964C21.7772 12.924 21.676 12.6843 21.4693 12.4774C21.2624 12.2706 21.0248 12.1671 20.7563 12.1671C20.4881 12.1671 20.2506 12.2706 20.0437 12.4774L15.1 17.4211ZM16.5 28.4951C16.3616 28.4951 16.2257 28.484 16.0923 28.4618C15.959 28.4396 15.8299 28.4062 15.705 28.3618C12.8932 27.3618 10.6561 25.5888 8.99367 23.0428C7.33122 20.4966 6.5 17.7491 6.5 14.8004V8.79545C6.5 8.291 6.64622 7.83589 6.93867 7.43011C7.23089 7.02411 7.60689 6.72967 8.06667 6.54678L15.6563 3.71345C15.9419 3.61078 16.2231 3.55945 16.5 3.55945C16.7769 3.55945 17.0581 3.61078 17.3437 3.71345L24.9333 6.54678C25.3931 6.72967 25.7691 7.02411 26.0613 7.43011C26.3538 7.83589 26.5 8.291 26.5 8.79545V14.8004C26.5 17.7491 25.6688 20.4966 24.0063 23.0428C22.3439 25.5888 20.1068 27.3618 17.295 28.3618C17.1701 28.4062 17.041 28.4396 16.9077 28.4618C16.7743 28.484 16.6384 28.4951 16.5 28.4951Z" fill="#342430"/>
</svg>
