<svg width="25" height="25" viewBox="0 0 25 25" fill="none" xmlns="http://www.w3.org/2000/svg">
<path d="M9.27614 18.3705C9.52697 18.3705 9.73697 18.2857 9.90614 18.116C10.0753 17.9464 10.1599 17.7361 10.1599 17.4853C10.1599 17.2344 10.0751 17.0244 9.90539 16.8553C9.73572 16.6861 9.52547 16.6015 9.27464 16.6015C9.02381 16.6015 8.81381 16.6864 8.64464 16.856C8.47547 17.0257 8.39089 17.2359 8.39089 17.4868C8.39089 17.7376 8.47572 17.9476 8.64539 18.1168C8.81506 18.2859 9.02531 18.3705 9.27614 18.3705ZM12.2761 18.3705C12.527 18.3705 12.737 18.2857 12.9061 18.116C13.0753 17.9464 13.1599 17.7361 13.1599 17.4853C13.1599 17.2344 13.0751 17.0244 12.9054 16.8553C12.7357 16.6861 12.5255 16.6015 12.2746 16.6015C12.0238 16.6015 11.8138 16.6864 11.6446 16.856C11.4755 17.0257 11.3909 17.2359 11.3909 17.4868C11.3909 17.7376 11.4757 17.9476 11.6454 18.1168C11.8151 18.2859 12.0253 18.3705 12.2761 18.3705ZM15.2761 18.3705C15.527 18.3705 15.737 18.2857 15.9061 18.116C16.0753 17.9464 16.1599 17.7361 16.1599 17.4853C16.1599 17.2344 16.0751 17.0244 15.9054 16.8553C15.7357 16.6861 15.5255 16.6015 15.2746 16.6015C15.0238 16.6015 14.8138 16.6864 14.6446 16.856C14.4755 17.0257 14.3909 17.2359 14.3909 17.4868C14.3909 17.7376 14.4757 17.9476 14.6454 18.1168C14.8151 18.2859 15.0253 18.3705 15.2761 18.3705ZM9.27614 15.3705C9.52697 15.3705 9.73697 15.2857 9.90614 15.116C10.0753 14.9464 10.1599 14.7361 10.1599 14.4853C10.1599 14.2344 10.0751 14.0244 9.90539 13.8553C9.73572 13.6861 9.52547 13.6015 9.27464 13.6015C9.02381 13.6015 8.81381 13.6864 8.64464 13.856C8.47547 14.0257 8.39089 14.2359 8.39089 14.4868C8.39089 14.7376 8.47572 14.9476 8.64539 15.1168C8.81506 15.2859 9.02531 15.3705 9.27614 15.3705ZM12.2761 15.3705C12.527 15.3705 12.737 15.2857 12.9061 15.116C13.0753 14.9464 13.1599 14.7361 13.1599 14.4853C13.1599 14.2344 13.0751 14.0244 12.9054 13.8553C12.7357 13.6861 12.5255 13.6015 12.2746 13.6015C12.0238 13.6015 11.8138 13.6864 11.6446 13.856C11.4755 14.0257 11.3909 14.2359 11.3909 14.4868C11.3909 14.7376 11.4757 14.9476 11.6454 15.1168C11.8151 15.2859 12.0253 15.3705 12.2761 15.3705ZM15.2761 15.3705C15.527 15.3705 15.737 15.2857 15.9061 15.116C16.0753 14.9464 16.1599 14.7361 16.1599 14.4853C16.1599 14.2344 16.0751 14.0244 15.9054 13.8553C15.7357 13.6861 15.5255 13.6015 15.2746 13.6015C15.0238 13.6015 14.8138 13.6864 14.6446 13.856C14.4755 14.0257 14.3909 14.2359 14.3909 14.4868C14.3909 14.7376 14.4757 14.9476 14.6454 15.1168C14.8151 15.2859 15.0253 15.3705 15.2761 15.3705ZM12.2754 6.79377C11.0139 6.79377 9.93089 7.22994 9.02639 8.10227C8.12189 8.97477 7.64397 10.0386 7.59264 11.2938C7.57981 11.5449 7.66097 11.7552 7.83614 11.9245C8.01114 12.0937 8.22806 12.1783 8.48689 12.1783H16.0639C16.3227 12.1783 16.5396 12.0937 16.7146 11.9245C16.8898 11.7552 16.971 11.5449 16.9581 11.2938C16.9068 10.0386 16.4289 8.97477 15.5244 8.10227C14.6199 7.22994 13.5369 6.79377 12.2754 6.79377ZM4.58314 21.986C4.07797 21.986 3.65039 21.811 3.30039 21.461C2.95039 21.111 2.77539 20.6834 2.77539 20.1783V4.79377C2.77539 4.28861 2.95039 3.86102 3.30039 3.51102C3.65039 3.16102 4.07797 2.98602 4.58314 2.98602H19.9676C20.4728 2.98602 20.9004 3.16102 21.2504 3.51102C21.6004 3.86102 21.7754 4.28861 21.7754 4.79377V20.1783C21.7754 20.6834 21.6004 21.111 21.2504 21.461C20.9004 21.811 20.4728 21.986 19.9676 21.986H4.58314Z" fill="#5D5059"/>
</svg>
