<svg width="25" height="25" viewBox="0 0 25 25" fill="none" xmlns="http://www.w3.org/2000/svg">
<path d="M6.77637 15.6783H17.7764V16.6206C17.7764 16.7924 17.8328 16.9348 17.9456 17.0476C18.0585 17.1604 18.2008 17.2168 18.3726 17.2168C18.5443 17.2168 18.6865 17.1604 18.7994 17.0476C18.9122 16.9348 18.9686 16.7924 18.9686 16.6206V13.5783C18.9686 13.2732 18.902 12.9728 18.7686 12.6773C18.6353 12.3818 18.452 12.1335 18.2186 11.9323V9.90908C18.2186 9.40408 18.0436 8.97658 17.6936 8.62658C17.3436 8.27658 16.916 8.10158 16.4109 8.10158H13.3341C13.1123 8.10158 12.9132 8.13775 12.7369 8.21009C12.5607 8.28259 12.4072 8.38483 12.2764 8.51683C12.1455 8.38483 11.992 8.28259 11.8159 8.21009C11.6395 8.13775 11.4405 8.10158 11.2186 8.10158H8.14187C7.6367 8.10158 7.20912 8.27658 6.85912 8.62658C6.50912 8.97658 6.33412 9.40408 6.33412 9.90908V11.9323C6.10078 12.1335 5.91745 12.3818 5.78412 12.6773C5.65078 12.9728 5.58412 13.2732 5.58412 13.5783V16.6206C5.58412 16.7924 5.64053 16.9348 5.75337 17.0476C5.8662 17.1604 6.00845 17.2168 6.18012 17.2168C6.35195 17.2168 6.49428 17.1604 6.60712 17.0476C6.71995 16.9348 6.77637 16.7924 6.77637 16.6206V15.6783ZM6.77637 14.4861V13.4861C6.77637 13.2028 6.8722 12.9653 7.06387 12.7736C7.25553 12.5819 7.49303 12.4861 7.77637 12.4861H16.7764C17.0597 12.4861 17.2972 12.5819 17.4889 12.7736C17.6805 12.9653 17.7764 13.2028 17.7764 13.4861V14.4861H6.77637ZM7.52637 11.2938V9.60158C7.52637 9.51175 7.5552 9.438 7.61287 9.38034C7.67053 9.32267 7.74428 9.29383 7.83412 9.29383H11.3726C11.4623 9.29383 11.536 9.32267 11.5936 9.38034C11.6513 9.438 11.6801 9.51175 11.6801 9.60158V11.2938H7.52637ZM12.8726 11.2938V9.60158C12.8726 9.51175 12.9015 9.438 12.9591 9.38034C13.0168 9.32267 13.0905 9.29383 13.1801 9.29383H16.7186C16.8085 9.29383 16.8822 9.32267 16.9399 9.38034C16.9975 9.438 17.0264 9.51175 17.0264 9.60158V11.2938H12.8726ZM4.58412 21.9861C4.07895 21.9861 3.65137 21.8111 3.30137 21.4611C2.95137 21.1111 2.77637 20.6835 2.77637 20.1783V4.79383C2.77637 4.28867 2.95137 3.86108 3.30137 3.51108C3.65137 3.16108 4.07895 2.98608 4.58412 2.98608H19.9686C20.4738 2.98608 20.9014 3.16108 21.2514 3.51108C21.6014 3.86108 21.7764 4.28867 21.7764 4.79383V20.1783C21.7764 20.6835 21.6014 21.1111 21.2514 21.4611C20.9014 21.8111 20.4738 21.9861 19.9686 21.9861H4.58412Z" fill="#5D5059"/>
</svg>
