<svg width="25" height="25" viewBox="0 0 25 25" fill="none" xmlns="http://www.w3.org/2000/svg">
<path d="M4.77588 20.9866C4.56338 20.9866 4.3853 20.9147 4.24163 20.7708C4.0978 20.627 4.02588 20.4488 4.02588 20.2363C4.02588 20.0237 4.0978 19.8456 4.24163 19.7021C4.3853 19.5584 4.56338 19.4866 4.77588 19.4866H6.02588V4.89057C6.02588 4.6344 6.11255 4.41974 6.28588 4.24657C6.45905 4.07324 6.67371 3.98657 6.92988 3.98657H13.5066C13.7628 3.98657 13.9775 4.07324 14.1506 4.24657C14.324 4.41974 14.4106 4.6344 14.4106 4.89057V4.98657H17.6219C17.878 4.98657 18.0927 5.07324 18.2659 5.24657C18.4392 5.41974 18.5259 5.6344 18.5259 5.89057V19.4866H19.7759C19.9884 19.4866 20.1665 19.5585 20.3101 19.7023C20.454 19.8462 20.5259 20.0243 20.5259 20.2368C20.5259 20.4495 20.454 20.6276 20.3101 20.7711C20.1665 20.9147 19.9884 20.9866 19.7759 20.9866H17.9344C17.6735 20.9866 17.457 20.8999 17.2846 20.7266C17.1121 20.5534 17.0259 20.3387 17.0259 20.0826V6.48657H14.4106V20.0826C14.4106 20.3387 14.324 20.5534 14.1506 20.7266C13.9775 20.8999 13.7628 20.9866 13.5066 20.9866H4.77588ZM12.4106 12.4866C12.4106 12.2417 12.3244 12.0331 12.1519 11.8606C11.9794 11.6882 11.7707 11.6021 11.5259 11.6021C11.281 11.6021 11.0724 11.6882 10.8999 11.8606C10.7275 12.0331 10.6414 12.2417 10.6414 12.4866C10.6414 12.7314 10.7275 12.9401 10.8999 13.1126C11.0724 13.2849 11.281 13.3711 11.5259 13.3711C11.7707 13.3711 11.9794 13.2849 12.1519 13.1126C12.3244 12.9401 12.4106 12.7314 12.4106 12.4866Z" fill="#5D5059"/>
</svg>
