<svg width="21" height="25" viewBox="0 0 21 25" fill="none" xmlns="http://www.w3.org/2000/svg">
<path d="M3.27539 9.40921V5.79396C3.27539 5.28879 3.42539 4.86121 3.72539 4.51121C4.02539 4.16121 4.39189 3.98621 4.82489 3.98621H16.2973C16.7303 3.98621 17.0968 4.16121 17.3968 4.51121C17.6968 4.86121 17.8468 5.28879 17.8468 5.79396V9.40921H3.27539ZM4.82489 20.9862C4.39189 20.9862 4.02539 20.8112 3.72539 20.4612C3.42539 20.1112 3.27539 19.6836 3.27539 19.1785V10.294H17.8468V19.1785C17.8468 19.6836 17.6968 20.1112 17.3968 20.4612C17.0968 20.8112 16.7303 20.9862 16.2973 20.9862H4.82489ZM7.13253 7.67846C7.37539 7.67846 7.57896 7.58262 7.74325 7.39096C7.90753 7.19929 7.98968 6.96179 7.98968 6.67846C7.98968 6.39512 7.90753 6.15762 7.74325 5.96596C7.57896 5.77429 7.37539 5.67846 7.13253 5.67846C6.88968 5.67846 6.6861 5.77429 6.52182 5.96596C6.35753 6.15762 6.27539 6.39512 6.27539 6.67846C6.27539 6.96179 6.35753 7.19929 6.52182 7.39096C6.6861 7.58262 6.88968 7.67846 7.13253 7.67846ZM9.70396 14.1015H11.4182C11.6144 14.1015 11.7788 14.0241 11.9115 13.8695C12.0442 13.7146 12.1106 13.5228 12.1106 13.294C12.1106 13.0651 12.0442 12.8733 11.9115 12.7185C11.7788 12.5636 11.6144 12.4862 11.4182 12.4862H9.70396C9.50782 12.4862 9.34339 12.5636 9.21068 12.7185C9.07796 12.8733 9.0116 13.0651 9.0116 13.294C9.0116 13.5228 9.07796 13.7146 9.21068 13.8695C9.34339 14.0241 9.50782 14.1015 9.70396 14.1015ZM10.5611 7.67846C10.804 7.67846 11.0075 7.58262 11.1718 7.39096C11.3361 7.19929 11.4182 6.96179 11.4182 6.67846C11.4182 6.39512 11.3361 6.15762 11.1718 5.96596C11.0075 5.77429 10.804 5.67846 10.5611 5.67846C10.3182 5.67846 10.1147 5.77429 9.95039 5.96596C9.7861 6.15762 9.70396 6.39512 9.70396 6.67846C9.70396 6.96179 9.7861 7.19929 9.95039 7.39096C10.1147 7.58262 10.3182 7.67846 10.5611 7.67846ZM13.9897 7.67846C14.2325 7.67846 14.4361 7.58262 14.6004 7.39096C14.7647 7.19929 14.8468 6.96179 14.8468 6.67846C14.8468 6.39512 14.7647 6.15762 14.6004 5.96596C14.4361 5.77429 14.2325 5.67846 13.9897 5.67846C13.7468 5.67846 13.5432 5.77429 13.379 5.96596C13.2147 6.15762 13.1325 6.39512 13.1325 6.67846C13.1325 6.96179 13.2147 7.19929 13.379 7.39096C13.5432 7.58262 13.7468 7.67846 13.9897 7.67846Z" fill="#5D5059"/>
</svg>
