<svg width="25" height="25" viewBox="0 0 25 25" fill="none" xmlns="http://www.w3.org/2000/svg">
<path d="M4.58314 21.9868C4.07797 21.9868 3.65039 21.8118 3.30039 21.4618C2.95039 21.1118 2.77539 20.6842 2.77539 20.1791V4.79457C2.77539 4.2894 2.95039 3.86182 3.30039 3.51182C3.65039 3.16182 4.07797 2.98682 4.58314 2.98682H19.9676C20.4728 2.98682 20.9004 3.16182 21.2504 3.51182C21.6004 3.86182 21.7754 4.2894 21.7754 4.79457V20.1791C21.7754 20.6842 21.6004 21.1118 21.2504 21.4618C20.9004 21.8118 20.4728 21.9868 19.9676 21.9868H4.58314ZM7.27539 18.1791H17.2754C17.8254 18.1791 18.245 18.0105 18.5341 17.6733C18.8231 17.3361 18.9676 16.9406 18.9676 16.4868V12.7946C18.9676 12.3702 18.852 11.9817 18.6206 11.6291C18.3891 11.2766 18.0881 11.0125 17.7176 10.8368V9.67907C17.7176 8.93557 17.4548 8.30098 16.9291 7.77532C16.4035 7.24965 15.7689 6.98682 15.0254 6.98682H9.52539C8.78189 6.98682 8.14731 7.24965 7.62164 7.77532C7.09597 8.30098 6.83314 8.93557 6.83314 9.67907V10.8368C6.46264 11.0125 6.16164 11.2766 5.93014 11.6291C5.69881 11.9817 5.58314 12.3702 5.58314 12.7946V16.4868C5.58314 17.0368 5.75172 17.4564 6.08889 17.7456C6.42606 18.0346 6.82156 18.1791 7.27539 18.1791ZM7.27539 16.9868C7.12539 16.9868 7.00456 16.941 6.91289 16.8493C6.82122 16.7576 6.77539 16.6368 6.77539 16.4868V12.7946C6.77539 12.5112 6.87122 12.2737 7.06289 12.0821C7.25456 11.8904 7.49206 11.7946 7.77539 11.7946C8.05872 11.7946 8.29622 11.8904 8.48789 12.0821C8.67956 12.2737 8.77539 12.5112 8.77539 12.7946V14.7946H15.7754V12.7946C15.7754 12.5112 15.8712 12.2737 16.0629 12.0821C16.2546 11.8904 16.4921 11.7946 16.7754 11.7946C17.0587 11.7946 17.2962 11.8904 17.4879 12.0821C17.6796 12.2737 17.7754 12.5112 17.7754 12.7946V16.4868C17.7754 16.6368 17.7296 16.7576 17.6379 16.8493C17.5462 16.941 17.4254 16.9868 17.2754 16.9868H7.27539ZM9.96764 13.6023V12.7946C9.96764 12.2214 9.77822 11.732 9.39939 11.3263C9.02056 10.9205 8.56256 10.6958 8.02539 10.6523V9.67907C8.02539 9.24573 8.16706 8.8874 8.45039 8.60407C8.73372 8.32073 9.09206 8.17907 9.52539 8.17907H15.0254C15.4587 8.17907 15.8171 8.32073 16.1004 8.60407C16.3837 8.8874 16.5254 9.24573 16.5254 9.67907V10.6523C15.9882 10.6958 15.5302 10.9205 15.1514 11.3263C14.7726 11.732 14.5831 12.2214 14.5831 12.7946V13.6023H9.96764Z" fill="#5D5059"/>
</svg>
